<?xml version="1.0" encoding="UTF-8"?>
<!DOCTYPE svg PUBLIC "-//W3C//DTD SVG 1.1//EN" "http://www.w3.org/Graphics/SVG/1.1/DTD/svg11.dtd">
<!-- Creator: CorelDRAW -->
<svg xmlns="http://www.w3.org/2000/svg" xml:space="preserve" width="658px" height="685px" style="shape-rendering:geometricPrecision; text-rendering:geometricPrecision; image-rendering:optimizeQuality; fill-rule:evenodd; clip-rule:evenodd"
viewBox="0 0 286.906 298.391"
 xmlns:xlink="http://www.w3.org/1999/xlink">
 <defs>
  <style type="text/css">
   <![CDATA[
    .fil0 {fill:none}
    .fil2 {fill:black;fill-rule:nonzero}
    .fil3 {fill:#1F1A17;fill-rule:nonzero}
    .fil1 {fill:white;fill-rule:nonzero}
   ]]>
  </style>
 </defs>
 <g id="Capa_x0020_1">
  <metadata id="CorelCorpID_0Corel-Layer"/>
  <g id="_39916352">
   <rect id="_39940512" class="fil0" x="-3.04736e-005" y="-0.000197032" width="286.906" height="298.391"/>
   <g>
    <path id="_39938712" class="fil1" d="M143.453 20.8884l0.00102959 0 0 0.0211066c34.4347,0 65.6015,13.9494 88.1506,36.499 22.5486,22.5486 36.4975,53.7149 36.498,88.148l0.0211066 0 0 0.00257398 0 0.00102959 -0.0211066 0c0,34.4342 -13.9494,65.601 -36.499,88.1501 -22.5486,22.5486 -53.7149,36.498 -88.148,36.4985l0 0.0211066 -0.00257398 0 -0.00102959 0 0 -0.0211066c-34.4342,-0.000514796 -65.601,-13.9494 -88.1501,-36.499 -22.5486,-22.5491 -36.498,-53.7149 -36.4985,-88.1485l-0.0211066 0 0 -0.00205918 0 -0.00102959 0.0211066 0c0.000514796,-34.4347 13.9494,-65.6015 36.499,-88.1506 22.5491,-22.5486 53.7149,-36.4975 88.1485,-36.498l0 -0.0211066 0.00205918 0z"/>
    <path id="_39955664" class="fil2" d="M203.63 176.234l0 0.00411837 -0.00102959 0 -0.00257398 0 0 -0.00411837c-1.19947,0.000514796 -2.28878,0.489571 -3.07951,1.2803l-0.00360357 0c-0.788668,0.788153 -1.27721,1.87798 -1.27721,3.08105l0.00411837 0 0 0.00102959 0 0.00257398 -0.00411837 0c0.000514796,1.19947 0.489571,2.28827 1.2803,3.079l0 0.00411837c0.788668,0.788668 1.87849,1.27669 3.08105,1.27721l0 -0.00411837 0.00154439 0 0.00205918 0 0 0.00411837c1.20102,-0.000514796 2.29084,-0.489571 3.08105,-1.27875l-0.00154439 -0.00154439c0.790727,-0.791242 1.28081,-1.88106 1.28081,-3.08157l-0.00411837 0 0 -0.00102959 0 -0.00205918 0.00411837 0c-0.000514796,-1.20153 -0.489056,-2.29084 -1.27824,-3.08157l-0.00205918 0.00205918c-0.790727,-0.791242 -1.88106,-1.28081 -3.08105,-1.28081zm-141.306 28.9496l14.0637 0 0 -0.00411837c0.297037,0 0.617241,-0.196137 0.829851,-0.48082 0.0401541,-0.0545684 0.0761898,-0.111196 0.105018,-0.169368 0.027799,-0.0561128 0.0494204,-0.110681 0.0628051,-0.161646l0.00308878 -0.00308878 -0.00205918 -0.000514796 13.6174 -50.8207c0.0138995,-0.0509648 0.0205918,-0.100385 0.0205918,-0.146202 0,-0.0509648 -0.00669235,-0.0854562 -0.0185327,-0.1009 -0.00514796,-0.00669235 -0.0216214,-0.0138995 -0.0489056,-0.0216214 -0.0247102,-0.00617755 -0.058172,-0.00978113 -0.100385,-0.00978113l0 -0.00411837 -14.0632 0 0 0.00411837c-0.297037,0 -0.617755,0.196652 -0.829851,0.481334 -0.0406689,0.0540536 -0.0761898,0.111196 -0.105018,0.169368 -0.027799,0.055598 -0.0494204,0.110166 -0.0633199,0.161646l-0.00308878 0.00257398 0.00205918 0.000514796 -13.6174 50.8212c-0.0133847,0.0509648 -0.020077,0.100385 -0.020077,0.146202 0,0.05045 0.00669235,0.0849414 0.0180179,0.1009 0.00514796,0.00617755 0.0216214,0.0133847 0.0489056,0.0211066 0.0247102,0.00617755 0.058172,0.00978113 0.100385,0.00978113l0 0.00411837zm21.7084 -0.00411837l44.6431 0c0.297037,0 0.617241,-0.196137 0.829336,-0.48082 0.0406689,-0.0540536 0.0761898,-0.111196 0.105018,-0.169368 0.027799,-0.0561128 0.0494204,-0.110681 0.0633199,-0.161646l0.00257398 -0.00308878 -0.00154439 -0.000514796 3.19019 -11.9062c0.0133847,-0.0509648 0.020077,-0.100385 0.020077,-0.146202 0,-0.0509648 -0.00669235,-0.0854562 -0.0180179,-0.101415 -0.00514796,-0.00617755 -0.0216214,-0.0133847 -0.0489056,-0.0211066 -0.0247102,-0.00617755 -0.058172,-0.00978113 -0.100385,-0.00978113 -0.0159587,0 -0.0164735,-0.00102959 -0.0138995,-0.00205918l-0.058172 0.00411837 -0.0653791 0.00411837 -21.6724 0 -2.78247 0 2.10243 -1.82753 29.9637 -26.0394c0.137451,-0.119433 0.239895,-0.255339 0.304244,-0.392275 0.00308878,-0.00669235 0.0128699,-0.0314026 0.0283138,-0.0751602 0.00875153,-0.022651 0.0159587,-0.0458169 0.0221362,-0.0679531l0.00308878 -0.00308878 0 0 2.74283 -10.2367c0.0133847,-0.0509648 0.020077,-0.100385 0.020077,-0.146717 0,-0.05045 -0.00669235,-0.0849414 -0.0185327,-0.100385 -0.00463316,-0.00669235 -0.0211066,-0.0138995 -0.0483908,-0.0216214 -0.0247102,-0.00617755 -0.058172,-0.00978113 -0.100385,-0.00978113l-43.7777 0c-0.297037,0 -0.617241,0.196652 -0.829336,0.481334 -0.0406689,0.0540536 -0.0761898,0.111196 -0.105018,0.169368 -0.027799,0.055598 -0.0494204,0.110166 -0.0633199,0.161646l-0.00257398 0.00257398 0.00154439 0.000514796 -3.19019 11.9072c-0.0138995,0.05045 -0.020077,0.0998704 -0.020077,0.146202 0,0.05045 0.00669235,0.0849414 0.0180179,0.1009 0.00514796,0.00617755 0.0216214,0.0133847 0.0489056,0.0211066 0.0247102,0.00617755 0.058172,0.00978113 0.100385,0.00978113l20.9373 0 2.78247 0 -2.10294 1.82753 -29.956 26.0338c-0.136936,0.118918 -0.239895,0.254824 -0.304244,0.39176l0 0.00411837c-0.00772194,0.0164735 -0.0175031,0.0411837 -0.0283138,0.0710419 -0.00875153,0.022651 -0.0159587,0.0458169 -0.0221362,0.0679531l-0.00308878 0.00308878 0 0 -2.74283 10.2367c-0.0133847,0.0509648 -0.020077,0.100385 -0.020077,0.146202 0,0.05045 0.00669235,0.0849414 0.0185327,0.1009 0.00463316,0.00617755 0.0211066,0.0133847 0.0483908,0.0211066 0.0247102,0.00617755 0.058172,0.00978113 0.100385,0.00978113zm51.927 0l40.6092 0c0.297037,0 0.617241,-0.196137 0.829336,-0.48082 0.0406689,-0.0545684 0.0761898,-0.111196 0.105018,-0.169368 0.027799,-0.0561128 0.0494204,-0.110681 0.0633199,-0.161646l0.00257398 -0.00308878 -0.00154439 -0.000514796 3.20975 -11.9788c0.0133847,-0.0509648 0.020077,-0.100385 0.020077,-0.146202 0,-0.0509648 -0.00669235,-0.0854562 -0.0185327,-0.1009 -0.00463316,-0.00669235 -0.0216214,-0.0144143 -0.0483908,-0.0216214 -0.0247102,-0.00617755 -0.058172,-0.00978113 -0.1009,-0.00978113l-25.1828 0 -1.357 0 0.351606 -1.31067 1.30758 -4.8813 0.207463 -0.773224 0.797934 0 22.6546 0c0.297037,0 0.617755,-0.196652 0.829851,-0.48082 0.0406689,-0.0540536 0.075675,-0.111196 0.105018,-0.169368 0.027799,-0.0561128 0.0489056,-0.110681 0.0628051,-0.161646l0.00308878 -0.00308878 -0.00205918 -0.000514796 2.97655 -11.1083c0.0133847,-0.05045 0.020077,-0.0998704 0.020077,-0.145687 0,-0.0509648 -0.00669235,-0.0854562 -0.0185327,-0.101415 -0.00463316,-0.00617755 -0.0216214,-0.0138995 -0.0483908,-0.0211066 -0.0247102,-0.00669235 -0.058172,-0.0102959 -0.1009,-0.0102959l-22.6541 0 -1.35649 0 0.351091 -1.31016 1.21234 -4.52403 0.206948 -0.773224 0.798449 0 25.1787 0c0.294463,0 0.612093,-0.195108 0.823159,-0.477731 0.0401541,-0.0535388 0.0751602,-0.110166 0.103989,-0.168338 0.027799,-0.055598 0.0494204,-0.109652 0.0628051,-0.160102l0.00411837 -0.00411837 0.00102959 -0.00360357 0.183267 -0.673353 3.02855 -11.3013c0.0133847,-0.0509648 0.020077,-0.100385 0.020077,-0.146202 0,-0.0509648 -0.00669235,-0.0854562 -0.0185327,-0.1009 -0.00463316,-0.00669235 -0.0211066,-0.0138995 -0.0483908,-0.0216214 -0.0247102,-0.00617755 -0.058172,-0.00978113 -0.100385,-0.00978113l-40.6045 0c-0.297037,0 -0.617241,0.196652 -0.829851,0.481334 -0.0401541,0.0540536 -0.075675,0.111196 -0.105018,0.169368 -0.027799,0.055598 -0.0489056,0.110166 -0.0628051,0.161646l-0.00308878 0.00257398 0.00205918 0.000514796 -13.6174 50.8212c-0.0138995,0.0509648 -0.0205918,0.0998704 -0.0205918,0.146202 0,0.05045 0.00669235,0.0849414 0.0185327,0.1009 0.00463316,0.00617755 0.0216214,0.0133847 0.0489056,0.0211066 0.0247102,0.00617755 0.058172,0.00978113 0.100385,0.00978113zm32.8872 -64.5606l13.8475 0c0.297552,0 0.617755,-0.196652 0.829851,-0.48082 0.0406689,-0.0545684 0.0761898,-0.111711 0.105018,-0.169883 0.027799,-0.055598 0.0494204,-0.110166 0.0633199,-0.161646l0.00257398 -0.00257398 -0.00154439 -0.000514796 6.23264 -23.2616 0.704756 -2.62958 1.2283 2.43035 12.2521 24.2356c0.00514796,0.00978113 0.0236806,0.0190475 0.0509648,0.0262546l-0.000514796 0.00102959c0.00875153,0.00205918 0.0236806,0.00411837 0.0432429,0.00617755 0.027799,0.00308878 0.047876,0.00566276 0.0612607,0.00566276l0 0 0.0272842 -0.000514796 0.020077 -0.00411837 12.2068 0c0.294978,0 0.612607,-0.195108 0.823674,-0.477216 0.0401541,-0.0540536 0.0751602,-0.110681 0.103989,-0.168338 0.027799,-0.055598 0.0489056,-0.109652 0.0628051,-0.160616l0.00411837 -0.00411837 0.000514796 -0.00308878 0.183782 -0.673868 13.4362 -50.1432c0.0133847,-0.0509648 0.020077,-0.0998704 0.020077,-0.146202 0,-0.05045 -0.00669235,-0.0849414 -0.0185327,-0.1009 -0.00463316,-0.00617755 -0.0216214,-0.0138995 -0.0489056,-0.0211066 -0.0247102,-0.00669235 -0.058172,-0.0102959 -0.100385,-0.0102959l-13.847 0c-0.297037,0 -0.617241,0.196652 -0.829851,0.481334 -0.0401541,0.0545684 -0.0761898,0.111196 -0.105018,0.169368 -0.0272842,0.0561128 -0.0489056,0.110681 -0.0628051,0.161646l-0.00308878 0.00308878 0.00205918 0.000514796 -5.95825 22.2361 -0.704756 2.63061 -1.2283 -2.43138 -11.7281 -23.2101c-0.00617755,-0.0128699 -0.0308878,-0.0241954 -0.0658939,-0.0319174 -0.020077,-0.00411837 -0.0380949,-0.00720715 -0.053024,-0.00823674 -0.0211066,-0.00102959 -0.0442725,-0.00102959 -0.0674383,0.000514796l0 0 -0.0118403 0.00102959 -0.0772194 0.00360357 -12.9332 0c-0.294463,0 -0.612093,0.195623 -0.823159,0.477731 -0.0401541,0.0535388 -0.0751602,0.110166 -0.103989,0.168338 -0.027799,0.055598 -0.0489056,0.109652 -0.0628051,0.160102l-0.00411837 0.00411837 -0.000514796 0.00360357 -0.185327 0.677472 -13.4346 50.1396c-0.0133847,0.05045 -0.020077,0.0998704 -0.020077,0.146202 0,0.05045 0.00669235,0.0849414 0.0180179,0.100385 0.00514796,0.00617755 0.0216214,0.0138995 0.0489056,0.0211066 0.0247102,0.00669235 0.058172,0.0102959 0.100385,0.0102959zm-31.9544 0.00411837l0.00514796 0 0.00257398 0c3.10628,0 6.07511,-0.327925 8.86942,-1.00282 0.799478,-0.192534 1.59741,-0.418529 2.39226,-0.677986 0.767561,-0.250706 1.53203,-0.535903 2.2929,-0.855591 2.03241,-0.854047 3.94231,-1.92894 5.71063,-3.2324 3.84038,-2.83086 7.0002,-6.71963 9.29619,-11.7564 0.442725,-0.970905 0.858165,-1.99947 1.24478,-3.0862 0.382493,-1.07386 0.731525,-2.19612 1.04504,-3.36625l0.00411837 -0.00411837 0.000514796 -0.00308878 0.183267 -0.672838 7.23752 -27.0103c0.0123551,-0.0463316 0.0185327,-0.0911189 0.0185327,-0.132817l0.00411837 0c0,-0.0386097 -0.00669235,-0.0669235 -0.0185327,-0.0823674 -0.00669235,-0.00875153 -0.0247102,-0.0175031 -0.0519944,-0.025225 -0.0262546,-0.00669235 -0.0622903,-0.0108107 -0.106563,-0.0108107l-14.2079 0c-0.300126,0 -0.620329,0.192019 -0.829336,0.469494 -0.0458169,0.0607459 -0.0813378,0.1148 -0.103989,0.160102 -0.0216214,0.0427281 -0.0411837,0.0952373 -0.0571424,0.155468l-0.00308878 0.00257398 0.00205918 0.000514796 -7.18192 26.8034 0.00617755 0 -0.351091 1.31067c-0.63011,2.35107 -1.56549,4.24243 -2.7382,5.69262 -0.232688,0.287771 -0.476186,0.559583 -0.728951,0.814922 -0.249676,0.25225 -0.511193,0.489571 -0.783005,0.711448l-0.00514796 0.00360357c-0.789697,0.64401 -1.66639,1.14902 -2.61413,1.5171 -0.270783,0.105018 -0.551861,0.20077 -0.843236,0.285712 -0.285712,0.083397 -0.576057,0.155468 -0.868976,0.2157 -0.548773,0.11274 -1.11505,0.185841 -1.69831,0.220333l-0.00720715 0.0272842 -0.787123 0c-0.107592,0 -0.214155,-0.00154439 -0.320203,-0.00411837l-1.04658 0 0.0205918 -0.0725862c-1.32406,-0.158042 -2.44734,-0.561643 -3.33382,-1.21698 -0.241439,-0.178634 -0.463316,-0.374257 -0.664087,-0.585323 -0.206433,-0.216729 -0.389701,-0.447358 -0.550317,-0.691371l-0.00102959 0.00102959 -0.00102959 -0.00205918 -0.00463316 -0.00823674c-0.826248,-1.26074 -1.16035,-2.97758 -0.916337,-5.16392 0.0447873,-0.405145 0.110166,-0.826248 0.194593,-1.26228 0.0854562,-0.440665 0.18996,-0.893171 0.313511,-1.35649l0.00514796 -0.0185327 0.207463 -0.773224 0.00566276 0 7.23083 -26.9856c0.0123551,-0.0463316 0.0185327,-0.0911189 0.0185327,-0.132817l0.00360357 0c0,-0.0386097 -0.00669235,-0.0669235 -0.0180179,-0.0823674 -0.00669235,-0.00875153 -0.0247102,-0.0175031 -0.0519944,-0.025225 -0.0262546,-0.00669235 -0.0617755,-0.0108107 -0.106563,-0.0108107l-14.2079 0c-0.299611,0 -0.619814,0.192019 -0.829336,0.469494 -0.0416985,0.0550832 -0.0767046,0.110681 -0.103474,0.16422l-0.00154439 -0.00102959c-0.0211066,0.0427281 -0.0401541,0.0931781 -0.0561128,0.15238l-0.00257398 0.00257398 0.00205918 0.000514796 -7.16287 26.7318 0.00566276 0 -0.351091 1.31067c-1.53821,5.74204 -1.58248,10.3587 -0.324322,13.9072 0.240925,0.677986 0.526636,1.31376 0.855591,1.90526 0.32844,0.590986 0.705271,1.148 1.1274,1.67103l0.00720715 0.00463316c1.10115,1.36112 2.49933,2.46484 4.16933,3.31786 0.547743,0.279534 1.1274,0.533844 1.73795,0.762413 0.6054,0.227025 1.24941,0.430884 1.931,0.610548 2.30938,0.609519 4.95028,0.909645 7.88822,0.909645zm-74.5682 -0.00411837l13.9916 0c0.297037,0 0.617241,-0.196652 0.829851,-0.48082 0.0401541,-0.0545684 0.0761898,-0.111711 0.105018,-0.169883 0.027799,-0.055598 0.0494204,-0.110166 0.0628051,-0.161646l0.00308878 -0.00257398 -0.00205918 -0.000514796 3.6983 -13.8027 0.207463 -0.773224 0.797934 0 3.71065 0 0.708359 0 0.260487 0.663572 5.76417 14.6774 0 0.00411837c0.00514796,0.0144143 0.0267694,0.0262546 0.0571424,0.0334617 0.0283138,0.00720715 0.0473612,0.0113255 0.0566276,0.0123551 0.0149291,0.00102959 0.0386097,0.00102959 0.0684679,0l0 -0.000514796 0.0133847 -0.00102959 0.0653791 -0.00411837 16.0493 0c0.294463,0 0.612093,-0.195108 0.823159,-0.477216 0.0396393,-0.0540536 0.0751602,-0.110681 0.103989,-0.168338 0.027799,-0.055598 0.0489056,-0.109652 0.0628051,-0.160616l0.00257398 -0.00257398 -0.00154439 -0.000514796c0.0205918,-0.0787638 0.0267694,-0.144143 0.0195623,-0.194078l-0.000514796 0.000514796 -0.00720715 -0.0231658 0.00102959 0c-0.00102959,-0.00154439 -0.00308878,-0.00514796 -0.00566276,-0.0123551l0.00257398 -0.00102959 -0.335647 -0.819555 0.00102959 -0.000514796 -6.32993 -15.3667 -0.378375 -0.918396 0.902952 -0.420588c0.193563,-0.0895745 0.373227,-0.175545 0.538992,-0.257398 0.180693,-0.0885449 0.361387,-0.180179 0.541051,-0.272842 0.687253,-0.355724 1.35649,-0.738218 2.0041,-1.14645 0.0592015,-0.0375801 0.180693,-0.116344 0.375801,-0.244528l0.375801 -0.246073 0.00411837 -0.00308878c3.27925,-2.2301 5.97936,-5.15929 7.81924,-8.80559 0.35315,-0.700637 0.677986,-1.43783 0.97245,-2.21105 0.291375,-0.766531 0.548258,-1.55932 0.768076,-2.37784l0.00257398 -0.00308878 -0.00205918 -0.000514796 0.0391245 -0.144658 0.152894 -0.570394c0.267179,-1.09034 0.448387,-2.12508 0.544654,-3.10371 0.111196,-1.13461 0.109652,-2.2059 -0.00308878,-3.2149 -0.11274,-1.00643 -0.335132,-1.93872 -0.665117,-2.79689 -0.325866,-0.846325 -0.765502,-1.63911 -1.31736,-2.37733l-0.401026 -0.536418c-0.140539,-0.174516 -0.286741,-0.343369 -0.437577,-0.507074l-0.00205918 0.00205918c-0.0664087,-0.0715567 -0.123036,-0.131788 -0.167824,-0.177605 -0.0561128,-0.0576572 -0.113255,-0.115314 -0.172457,-0.173486l-0.00154439 -0.00154439c-0.31557,-0.309392 -0.656365,-0.604371 -1.02136,-0.882875 -0.0509648,-0.0386097 -0.122521,-0.0916337 -0.215185,-0.158557 -0.0993556,-0.0720715 -0.168853,-0.121492 -0.206433,-0.148261l-0.00154439 0.00257398 -0.00154439 -0.000514796 -0.0123551 -0.0123551c-1.13821,-0.784034 -2.50603,-1.42701 -4.11888,-1.91247 -0.332043,-0.0998704 -0.659454,-0.189445 -0.981716,-0.269238 -2.09213,-0.51634 -4.54153,-0.789182 -7.37445,-0.789182l0 0.00360357 -0.00463316 0 -1.34619 0 0.00154439 -0.00617755 -22.5254 0c-0.297037,0 -0.617755,0.196652 -0.829851,0.481334 -0.0406689,0.0540536 -0.0761898,0.111196 -0.105018,0.169368 -0.027799,0.0561128 -0.0494204,0.110681 -0.0633199,0.161646l-0.00308878 0.00308878 0.00205918 0.000514796 -13.6174 50.8212c-0.0133847,0.05045 -0.020077,0.0998704 -0.020077,0.146202 0,0.05045 0.00669235,0.0849414 0.0180179,0.100385 0.00514796,0.00617755 0.0216214,0.0138995 0.0489056,0.0211066 0.0247102,0.00669235 0.058172,0.0102959 0.100385,0.0102959zm22.4971 -28.8317l2.41697 -9.01871 0.206948 -0.773224 0.798449 0 6.78347 0 0.000514796 -0.00257398 0.801538 0.000514796c1.59021,0 2.90191,0.242984 3.88568,0.724318 0.218274,0.106563 0.413381,0.219303 0.584808,0.336677 0.185841,0.127155 0.359328,0.268724 0.5184,0.423162l0.0123551 0.00823674 0.00205918 0.00205918 -0.00205918 0.00205918c1.38532,1.357 1.17785,3.52069 0.51737,5.17113 -0.325866,0.823159 -0.798449,1.54851 -1.3987,2.15905 -0.159587,0.162161 -0.319688,0.309907 -0.47979,0.44221 -0.157013,0.129729 -0.333073,0.260487 -0.527151,0.39073l0 0.00411837 -0.00308878 0.00154439 -0.00154439 -0.00257398c-0.403085,0.269238 -0.840147,0.502441 -1.30758,0.696519 -0.168853,0.0700123 -0.356754,0.140025 -0.562157,0.209007 -0.198711,0.0664087 -0.394849,0.12561 -0.586868,0.17606 -0.897804,0.236806 -1.90166,0.362416 -2.99714,0.362416l-1.35597 0.000514796 0.000514796 -0.00257398 -6.30162 0 -1.35649 0 0.351091 -1.31067z"/>
    <polygon id="_39954872" class="fil3" points="109.778,139.586 109.777,139.584 109.777,139.586 "/>
    <path id="_39916616" class="fil3" d="M192.57 125.749l-0.54311 2.02624 -1.47798 -5.51655 0.54311 -2.02624 1.47798 5.51655zm-1.35906 5.07177l-0.54311 2.02675 -1.47798 -5.51655 0.542595 -2.02675 1.47849 5.51655zm-1.35958 5.07332l-0.542595 2.02624 -1.47798 -5.51655 0.542595 -2.02624 1.47798 5.51655zm-1.35855 5.07177l-0.54311 2.02624 -1.47849 -5.51604 0.54311 -2.02675 1.47849 5.51655zm-1.51453 4.49314c-0.264605,0.262546 -0.590471,0.463316 -0.934355,0.566276l-1.15108 -4.29546c0.108107,-0.109137 0.208492,-0.224451 0.299611,-0.346458 0.114285,-0.152894 0.2157,-0.316085 0.300641,-0.486997 0.0617755,-0.123551 0.114285,-0.25225 0.159072,-0.386097l1.32611 4.94873zm-2.54618 0.643495l-1.0857 0 -0.911189 -3.39971 0.258942 0c0.267694,0 0.534873,-0.0427281 0.794845,-0.120462l0.943106 3.52018zm-2.71812 0l-1.08622 0 -0.911189 -3.39971 1.08622 0 0.911189 3.39971zm-2.71864 0l-1.0857 0 -0.911189 -3.39971 1.08622 0 0.910674 3.39971zm-2.71812 0l-1.08622 0 -0.910674 -3.39971 1.0857 0 0.911189 3.39971zm-2.71864 0l-1.08622 0 -0.910674 -3.39971 1.0857 0 0.911189 3.39971zm-2.83395 -0.431399c-0.182238,-0.230629 -0.270783,-0.538992 -0.237321,-0.885449l0.237321 0.885449zm61.7287 -53.5676l0.0319174 0 1.46254 5.45735 -0.54311 2.02624 -1.47849 -5.51655 0.527151 -1.96704zm1.67206 0.0293434c0.689312,0.142084 1.06563,0.786094 0.85868,1.55983l-0.220333 0.822129 -0.638347 -2.38196zm-1.53718 10.5003l-0.54311 2.02675 -1.47798 -5.51655 0.54311 -2.02624 1.47798 5.51604zm-1.35906 5.0728l-0.54311 2.02624 -1.47798 -5.51655 0.54311 -2.02624 1.47798 5.51655zm-1.35906 5.07229l-0.54311 2.02675 -1.47798 -5.51655 0.542595 -2.02624 1.47849 5.51604zm-1.35906 5.0728l-0.54311 2.02624 -1.47798 -5.51655 0.542595 -2.02624 1.47849 5.51655zm-1.35958 5.07229l-0.542595 2.02675 -1.47849 -5.51655 0.54311 -2.02675 1.47798 5.51655zm-1.35906 5.07229l-0.542595 2.02675 -1.47849 -5.51655 0.54311 -2.02624 1.47798 5.51604zm-1.35906 5.0728l-0.54311 2.02624 -1.47798 -5.51604 0.54311 -2.02675 1.47798 5.51655zm-1.35906 5.07229l-0.54311 2.02675 -1.47798 -5.51655 0.542595 -2.02624 1.47849 5.51604zm-1.35906 5.0728l-0.348517 1.30037 -0.00617755 0c-0.0509648,0.18893 -0.132817,0.370653 -0.238351,0.538992l-1.42856 -5.32917 0.54311 -2.02675 1.47849 5.51655zm-1.9588 2.83601c-0.129729,0.030373 -0.261002,0.0468464 -0.392275,0.0468464l-0.681075 0 -0.981716 -3.66483c0.336162,-0.151865 0.650187,-0.362416 0.92097,-0.616211l1.1341 4.2342zm-2.70577 0.0468464l-1.0857 0 -0.911189 -3.39971 1.08622 0 0.910674 3.39971zm-2.71864 0l-1.0857 0 -0.911189 -3.39971 1.08622 0 0.910674 3.39971zm-2.71812 0l-1.0857 0 -0.911189 -3.39971 1.08622 0 0.910674 3.39971zm-2.71864 0l-1.0857 0 -0.911189 -3.39971 1.08622 0 0.910674 3.39971zm-2.89521 -0.661513l-1.38429 -2.7382 0.650702 0 0.733584 2.7382zm-108.03 -37.9559l-1.08622 0 -0.911189 -3.39971 0.368079 0c0.256883,0.00978113 0.501411,0.027799 0.732555,0.0535388l0.896775 3.34617zm-2.71864 0l-1.08622 0 -0.910674 -3.39971 1.0857 0 0.911189 3.39971zm-2.71812 0l-1.08622 0 -0.910674 -3.39971 1.0857 0 0.911189 3.39971zm-2.08235 2.37475l-0.310937 1.16035 -0.464346 0 -1.24581 -4.65015 0.542595 -2.02675 1.47849 5.51655zm-2.40719 1.16035l-0.860224 0 0.43037 -1.60462 0.429855 1.60462zm10.7855 -6.41951c0.0998704,0.05045 0.200256,0.110166 0.298582,0.17709 0.0875153,0.0602311 0.164735,0.122521 0.231658,0.185841l-0.00205918 0.00154439 0.00205918 0.00205918 0.0118403 0.00823674c0.299097,0.290345 0.444784,0.726377 0.416985,1.3081 -0.00617755,0.133847 -0.0216214,0.27696 -0.0468464,0.428825l-0.0149291 0.0875153 -0.0813378 0.34028 -0.0592015 0.220333 -0.000514796 0.00257398 -0.00823674 0.0298582 -0.747999 -2.79225zm84.1635 90.912l0.48082 0c0.247617,0 0.466405,0.0571424 0.648128,0.159587l0.443754 1.65661 -0.54311 2.02624 -1.02959 -3.84244zm0.213126 6.889l-0.542595 2.02675 -1.47849 -5.51655 0.54311 -2.02675 1.47798 5.51655zm-1.35906 5.07229l-0.43037 1.60668c-0.0319174,0.119433 -0.0767046,0.235777 -0.131788,0.348002l-1.45893 -5.445 0.54311 -2.02624 1.47798 5.51655zm-1.88621 3.10525c-0.179664,0.058172 -0.364476,0.0900893 -0.548258,0.0900893l-0.513766 0 -1.00076 -3.73536c0.335132,-0.171942 0.64401,-0.401541 0.905526,-0.673353l1.15726 4.31862zm-2.69393 0.0900893l-1.08622 0 -0.910674 -3.39971 1.0857 0 0.911189 3.39971zm-2.71864 0l-1.0857 0 -0.911189 -3.39971 1.0857 0 0.911189 3.39971zm-2.71812 0l-1.0857 0 -0.911189 -3.39971 1.0857 0 0.911189 3.39971zm-2.71864 0l-1.0857 0 -0.911189 -3.39971 1.0857 0 0.911189 3.39971zm-2.71812 0l-1.0857 0 -0.911189 -3.39971 1.0857 0 0.911189 3.39971zm-2.71864 0l-1.0857 0 -0.911189 -3.39971 1.08622 0 0.910674 3.39971zm-2.71812 0l-1.0857 0 -0.911189 -3.39971 1.08622 0 0.910674 3.39971zm-2.71864 0l-1.0857 0 -0.911189 -3.39971 1.08622 0 0.910674 3.39971zm-2.71812 0l-1.0857 0 -0.911189 -3.39971 1.08622 0 0.910674 3.39971zm-2.71864 0l-1.0857 0 -0.910674 -3.39971 1.0857 0 0.910674 3.39971zm-2.71812 0l-1.0857 0 -0.910674 -3.39971 1.0857 0 0.910674 3.39971zm-2.71812 0l-1.08622 0 -0.910674 -3.39971 1.0857 0 0.911189 3.39971zm-2.71864 0l-1.0857 0 -0.911189 -3.39971 1.0857 0 0.911189 3.39971zm-2.71812 0l-1.08622 0 -0.910674 -3.39971 1.0857 0 0.911189 3.39971zm-2.71864 0l-0.405659 0c-0.290345,0 -0.541565,-0.0792786 -0.738218,-0.216729l-0.391245 -1.45996 0.461772 -1.72302 0.162676 0 0.910674 3.39971zm46.8027 -34.324l0.0684679 0c0.87155,0 1.38789,0.711963 1.15263,1.58918l-0.397937 1.48416 -0.823159 -3.07333zm0.00720715 6.1199l-0.54311 2.02624 -1.47798 -5.51655 0.54311 -2.02624 1.47798 5.51655zm-1.35906 5.0728l-0.4036 1.50475c-0.0386097,0.144658 -0.0957521,0.284167 -0.167309,0.4175l-1.45018 -5.41257 0.542595 -2.02624 1.47849 5.51655zm-1.90938 3.01876c-0.163705,0.0483908 -0.331014,0.0746454 -0.498323,0.0746454l-0.0489056 0c-0.181208,-0.171942 -0.392789,-0.311966 -0.629596,-0.413381l-0.883905 -3.2983c0.335647,-0.164735 0.646069,-0.388671 0.911189,-0.653791l1.14954 4.29083zm-2.86021 -0.527666l-1.0857 0 -0.749543 -2.7974 1.0857 0 0.749543 2.7974zm-2.71812 0l-1.0857 0 -0.749543 -2.7974 1.0857 0 0.749543 2.7974zm-2.71864 0l-1.0857 0 -0.749543 -2.7974 1.08622 0 0.749028 2.7974zm-2.71812 0l-1.0857 0 -0.749543 -2.7974 1.08622 0 0.749028 2.7974zm-2.71812 0l-1.08622 0 -0.749543 -2.7974 1.08622 0 0.749543 2.7974zm-2.71812 0l-1.08622 0 -0.749543 -2.7974 1.08622 0 0.749543 2.7974zm-2.71864 0l-1.08622 0 -0.749543 -2.7974 1.08622 0 0.749543 2.7974zm-2.71812 0l-1.08622 0 -0.749543 -2.7974 1.08622 0 0.749543 2.7974zm-2.71864 0l-1.0857 0 -0.127669 -0.475672 0.54311 -2.02624 0.670265 2.50191zm34.3544 -33.3583l0.20077 0 1.37811 5.14178 -0.54311 2.02624 -1.47798 -5.51655 0.44221 -1.65147zm1.85481 0.080823c0.570909,0.210037 0.864343,0.806171 0.675927,1.50784l-0.135906 0.507074 -0.540021 -2.01491zm-1.63499 10.1338l-0.54311 2.02624 -1.47798 -5.51655 0.542595 -2.02624 1.47849 5.51655zm-1.54696 4.37165c-0.273872,0.248132 -0.604885,0.430884 -0.948254,0.514281l-1.13667 -4.2414c0.138995,-0.130758 0.26615,-0.272842 0.37889,-0.423677 0.0643495,-0.0859709 0.124066,-0.175031 0.179149,-0.267179l0.129729 0 0.106563 -0.397937 1.29059 4.81592zm-2.56729 0.564731l-1.0857 0 -0.911189 -3.39971 0.366535 0c0.233203,0 0.466405,-0.0324322 0.694975,-0.0926633l0.935384 3.49238zm-2.71812 0l-0.773224 0c-0.0190475,-0.027799 -0.0375801,-0.0550832 -0.058172,-0.0818526 -0.110166,-0.148261 -0.238865,-0.281593 -0.382493,-0.395878l-0.783005 -2.92198 1.08622 0 0.910674 3.39971zm-2.97552 -0.95958l-1.08622 0 -0.653791 -2.44013 1.08622 0 0.653791 2.44013zm-2.71864 0l-1.08622 0 -0.653791 -2.44013 1.08622 0 0.653791 2.44013zm-2.71812 0l-1.08622 0 -0.653791 -2.44013 1.08622 0 0.653791 2.44013zm-2.71864 0l-1.0857 0 -0.653791 -2.44013 1.0857 0 0.653791 2.44013zm-2.71812 0l-1.0857 0 -0.653791 -2.44013 1.0857 0 0.653791 2.44013zm-2.71864 0l-1.0857 0 -0.653791 -2.44013 1.0857 0 0.653791 2.44013zm-2.71812 0l-1.0857 0 -0.653791 -2.44013 1.0857 0 0.653791 2.44013zm-2.71864 0l-1.0857 0 -0.42831 -1.59844 0.225481 -0.841692 0.634744 0 0.653791 2.44013zm-29.6996 24.7293l0.987379 0 0.49266 1.83782 -0.54311 2.02624 -0.986349 -3.68079 0.0494204 -0.183267zm0.120977 6.91011l-0.500897 1.86871c-0.0149291,0.0561128 -0.0283138,0.111711 -0.0396393,0.166794l-0.988923 -3.69006 0.54311 -2.02624 0.986349 3.68079zm-0.880301 6.8612c-0.172457,0.387127 -0.471553,0.725348 -0.828307,0.960609l-1.24272 -4.63728c0.0442725,-0.0725862 0.0854562,-0.146717 0.123036,-0.222907 0.0864857,-0.173486 0.157528,-0.358298 0.210037,-0.552376l-0.00205918 0 0.00257398 -0.00308878 0.272327 -1.01466 1.46511 5.46971zm-2.36755 1.30655l-1.08622 0 -0.918396 -3.427c0.344399,-0.0494204 0.683134,-0.16422 0.99716,-0.330499l1.00746 3.7575zm-2.71864 0l-1.08622 0 -0.910674 -3.39971 1.0857 0 0.911189 3.39971zm-2.71812 0l-1.08622 0 -0.910674 -3.39971 1.0857 0 0.911189 3.39971zm-2.71864 0l-1.08622 0 -0.910674 -3.39971 1.0857 0 0.911189 3.39971zm-2.71812 0l-1.08622 0 -0.910674 -3.39971 1.0857 0 0.911189 3.39971zm-2.71864 0l-1.08622 0 -0.910674 -3.39971 1.0857 0 0.911189 3.39971zm-2.71812 0l-1.08622 0 -0.910674 -3.39971 1.0857 0 0.911189 3.39971zm-2.71864 0l-1.08622 0 -0.910674 -3.39971 1.0857 0 0.911189 3.39971zm-2.71812 0l-1.08622 0 -0.910674 -3.39971 1.0857 0 0.911189 3.39971zm-2.71864 0l-1.0857 0 -0.911189 -3.39971 1.08622 0 0.910674 3.39971zm-2.71812 0l-1.08622 0 -0.911189 -3.39971 1.08622 0 0.911189 3.39971zm-2.71864 0l-1.0857 0 -0.911189 -3.39971 1.08622 0 0.910674 3.39971zm-2.71812 0l-1.08622 0 -0.910674 -3.39971 1.0857 0 0.911189 3.39971zm-2.71864 0l-1.0857 0 -0.911189 -3.39971 1.08622 0 0.910674 3.39971zm-2.71812 0l-1.08622 0 -0.910674 -3.39971 1.0857 0 0.911189 3.39971zm-2.71812 0l-1.08622 0 -0.911189 -3.39971 1.08622 0 0.911189 3.39971zm-2.71864 0l-0.684164 0c-0.150835,0 -0.29086,-0.0211066 -0.418014,-0.0612607l-0.571938 -2.13383 0.322777 -1.20462 0.440151 0 0.911189 3.39971zm57.8409 -53.9985l0.586353 0c0.195108,0 0.371683,0.0350061 0.526122,0.0998704l0.0211066 0.078249 -0.54311 2.02624 -0.590471 -2.20436zm-0.225995 5.25092l-0.542595 2.02624 -0.986349 -3.68079 0.542595 -2.02675 0.986349 3.68131zm-1.35906 5.07177l-0.542595 2.02675 -1.05121 -3.92223 0.000514796 -0.00102959 0.129214 0 0.206948 -0.773224 0.271298 -1.01106 0.985835 3.68079zm-1.66845 3.91914l-0.880816 0.765502 -1.20308 -4.49108 0.880816 -0.765502 1.20308 4.49108zm-2.20487 1.91607l-0.880301 0.765502 -1.20359 -4.49108 0.880816 -0.765502 1.20308 4.49108zm-2.20487 1.91607l-0.880816 0.765502 -1.20308 -4.49057 0.880816 -0.765502 1.20308 4.49057zm-2.20487 1.91659l-0.880816 0.764987 -1.20359 -4.49057 0.880816 -0.765502 1.20359 4.49108zm-2.20487 1.91607l-0.880816 0.765502 -1.20359 -4.49108 0.881331 -0.765502 1.20308 4.49108zm-2.20487 1.91607l-0.880816 0.765502 -1.20359 -4.49108 0.881331 -0.765502 1.20308 4.49108zm-2.20487 1.91607l-0.880816 0.765502 -1.20359 -4.49108 0.880816 -0.765502 1.20359 4.49108zm-2.20487 1.91607l-0.880816 0.765502 -1.20359 -4.49057 0.880816 -0.765502 1.20359 4.49057zm-2.20487 1.91607l-0.880816 0.765502 -1.20308 -4.49057 0.880816 -0.765502 1.20308 4.49057zm-2.20539 1.91659l-0.880301 0.765502 -1.20359 -4.49108 0.880816 -0.765502 1.20308 4.49108zm-2.20436 1.91556l-0.0386097 0.0339765 -1.03834 0 -1.00746 -3.75904 0.880816 -0.765502 1.20359 4.49057zm-2.70937 0.0339765l-1.08622 0 -0.493689 -1.84246 0.880816 -0.765502 0.699093 2.60796zm-2.71812 0l-0.981716 0 0.795875 -0.692401 0.185841 0.692401zm-5.10369 -18.3525l-0.899864 0 -0.911189 -3.39971 1.08622 0 0.875668 3.26896 -0.150835 0.130758zm-2.5328 0l-1.0857 0 -0.911189 -3.39971 1.08622 0 0.910674 3.39971zm-2.71812 0l-1.0857 0 -0.911189 -3.39971 1.08622 0 0.910674 3.39971zm-2.71864 0l-1.0857 0 -0.911189 -3.39971 1.08622 0 0.910674 3.39971zm-2.71812 0l-0.711963 0c-0.13848,0 -0.268724,-0.0185327 -0.387641,-0.0519944l-0.588412 -2.19509 0.308878 -1.15263 0.468464 0 0.910674 3.39971zm11.5948 -3.39971l1.08622 0 0.362416 1.35288 -0.880816 0.765502 -0.56782 -2.11839zm2.71864 0l0.286227 0 -0.232173 0.2018 -0.0540536 -0.2018zm-19.4408 -11.6838c0.839632,0.027799 1.33023,0.728436 1.10012,1.58763l-0.337191 1.25868 -0.762928 -2.84631zm-0.0535388 5.89287l-0.54311 2.02624 -1.47798 -5.51655 0.54311 -2.02624 1.47798 5.51655zm-1.35906 5.0728l-0.54311 2.02624 -1.47849 -5.51655 0.54311 -2.02624 1.47849 5.51655zm-1.35958 5.07229l-0.542595 2.02624 -1.47849 -5.51655 0.54311 -2.02624 1.47798 5.51655zm-1.35906 5.0728l-0.54311 2.02624 -1.47798 -5.51655 0.54311 -2.02624 1.47798 5.51655zm-1.35906 5.07229l-0.54311 2.02624 -1.47798 -5.51655 0.54311 -2.02624 1.47798 5.51655zm-1.35906 5.0728l-0.54311 2.02624 -1.47798 -5.51655 0.542595 -2.02675 1.47849 5.51707zm-1.4368 4.78194c-0.20283,0.200256 -0.373742,0.420588 -0.512737,0.650702l-0.129214 0 -0.134877 0.503985 -1.16653 -4.35466 0.542595 -2.02624 1.40076 5.22621zm-1.59278 4.20074l-0.54311 2.02675 -1.16704 -4.35466 0.54311 -2.02675 1.16704 4.35466zm-1.35958 5.0728l-0.542595 2.02624 -1.16704 -4.35466 0.54311 -2.02624 1.16653 4.35466zm-1.04761 6.23418l-0.231658 0.863313c-0.0761898,0.284167 -0.221877,0.550317 -0.413896,0.78146l-1.37554 -5.13458 0.54311 -2.02675 1.47798 5.51655zm-2.06382 2.44271c-0.0571424,0.00617755 -0.114285,0.00926633 -0.171942,0.00926633l-0.911704 0 -0.959065 -3.57938c0.337706,-0.124581 0.658424,-0.308363 0.942077,-0.536932l1.10063 4.10704zm-2.71606 0.00926633l-1.0857 0 -0.912219 -3.40383 1.08622 0 0.911704 3.40383zm-2.71812 0l-1.08622 0 -0.911704 -3.40383 1.0857 0 0.912219 3.40383zm-2.71864 0l-1.0857 0 -0.912219 -3.40383 1.08622 0 0.911704 3.40383zm-2.71812 0l-1.08622 0 -0.911704 -3.40383 1.0857 0 0.912219 3.40383zm-2.71864 0l-0.645554 0c-0.167309,0 -0.321748,-0.0262546 -0.460228,-0.0751602l-0.548773 -2.04889 0.342854 -1.27978 0.399997 0 0.911704 3.40383zm144.241 -29.6656l0.0499352 0.0447873 1.51144 5.64217c-0.16422,0.513252 -0.402571,0.993042 -0.703211,1.4265l-1.34568 -5.02081c0.272327,-0.650187 0.44221,-1.35391 0.487512,-2.09265zm-0.424192 8.42052c-0.292919,0.211581 -0.607459,0.394334 -0.940532,0.544654l-1.14079 -4.25788c0.221877,-0.170912 0.432944,-0.355209 0.630625,-0.552376l0.00411837 0c0.080823,-0.0813378 0.159587,-0.16525 0.236291,-0.250706l1.21029 4.51631zm-2.45712 0.975024c-0.229599,0.0298582 -0.463316,0.0458169 -0.701152,0.0458169 -0.12664,0 -0.25225,-0.00514796 -0.376316,-0.0133847l-0.955976 -3.56908c0.343884,-0.0828822 0.677472,-0.192534 0.997675,-0.327925l1.03577 3.86457zm-2.82263 -0.387641c-0.470009,-0.201285 -0.906041,-0.467435 -1.29677,-0.786608l-0.614152 -2.29393c0.361902,0.0679531 0.734099,0.105018 1.11505,0.109652l0.795875 2.97089zm-92.4033 -50.3491l0.231143 0.561128 1.26382 4.71656c-0.195108,0.360357 -0.499352,0.66872 -0.850958,0.877213l-1.22624 -4.57551c0.073101,-0.109137 0.140025,-0.223422 0.198196,-0.340795 0.0864857,-0.172971 0.157013,-0.357268 0.209007,-0.550832l-0.00154439 -0.000514796 0.00257398 -0.00257398c0.0576572,-0.215185 0.0870005,-0.427281 0.0906041,-0.633714l0.083397 -0.0509648zm-0.912219 6.4401l-1.08622 0 -0.914278 -3.41361c0.345943,-0.0350061 0.687768,-0.137451 1.00694,-0.293434l0.993556 3.70705zm-2.71812 0l-1.08622 0 -0.910674 -3.39971 1.0857 0 0.911189 3.39971zm-2.71864 0l-1.08622 0 -0.910674 -3.39971 1.0857 0 0.911189 3.39971zm-2.71812 0l-1.08622 0 -0.910674 -3.39971 1.0857 0 0.911189 3.39971zm-2.71864 0l-1.08622 0 -0.910674 -3.39971 1.08622 0 0.910674 3.39971zm-2.71812 0l-1.08622 0 -0.910674 -3.39971 1.08622 0 0.910674 3.39971zm-2.78968 -0.265635c-0.137965,-0.11377 -0.247102,-0.261516 -0.317114,-0.441695l-1.05739 -2.69238 0.534873 0 0.839632 3.13408zm82.3782 -53.7272l0.833455 0c0.0900893,0 0.17606,0.00720715 0.258428,0.0216214l0.657395 2.45249 -0.54311 2.02675 -1.20617 -4.50086zm0.389701 7.5464l-0.542595 2.02624 -1.47798 -5.51655 0.542595 -2.02624 1.47798 5.51655zm-1.35906 5.07229l-0.542595 2.02675 -1.47849 -5.51655 0.54311 -2.02624 1.47798 5.51604zm-1.35906 5.0728l-0.54311 2.02624 -1.47798 -5.51655 0.54311 -2.02624 1.47798 5.51655zm-1.35906 5.07229l-0.54311 2.02675 -1.47798 -5.51655 0.54311 -2.02624 1.47798 5.51604zm-1.35906 5.0728l-0.377346 1.40797 -0.00102959 0.00411837 -0.00617755 0c-0.0535388,0.199226 -0.108622,0.396908 -0.16422,0.59356l-1.47232 -5.49596 0.542595 -2.02624 1.47849 5.51655zm-1.43319 4.79636c-0.20283,0.572453 -0.414411,1.13204 -0.635773,1.67978l-1.41106 -5.26482c0.0550832,-0.148776 0.109652,-0.297552 0.162676,-0.447873 0.154954,-0.435517 0.304244,-0.877727 0.447873,-1.32611l1.43628 5.35903zm-1.65301 3.97834c-0.229599,0.475157 -0.46692,0.940018 -0.711963,1.3951l-1.35546 -5.05942c0.17709,-0.357783 0.350061,-0.720715 0.5184,-1.08982 0.058172,-0.127669 0.115314,-0.255854 0.172457,-0.384553l1.37656 5.13869zm-1.82907 3.31683c-0.250706,0.399997 -0.508104,0.790727 -0.771679,1.17271l-1.30758 -4.87924c0.257913,-0.405145 0.508619,-0.819041 0.753147,-1.2422l1.32611 4.94873zm-1.97012 2.79431c-0.267694,0.338221 -0.541051,0.66872 -0.82007,0.991497l-1.26382 -4.71759c0.273357,-0.343369 0.541051,-0.69549 0.803082,-1.05482l1.28081 4.78091zm-2.08441 2.36343c-0.282108,0.287256 -0.569364,0.56679 -0.860739,0.839632l-1.2247 -4.56984c0.286741,-0.292404 0.568335,-0.590986 0.845295,-0.89729l1.24014 4.6275zm-2.18274 2.0005c-0.294463,0.242984 -0.593045,0.479275 -0.895745,0.708874l-1.18712 -4.43034c0.298067,-0.248132 0.592015,-0.502441 0.881331,-0.763443l1.20153 4.4849zm-2.26613 1.68647c-0.305274,0.203859 -0.614667,0.401541 -0.927148,0.593045l-1.15108 -4.297c0.305274,-0.207463 0.607459,-0.421103 0.906041,-0.641436l0.00669235 -0.00463316 1.1655 4.35003zm-2.34181 1.40694c-0.315055,0.169368 -0.632684,0.333588 -0.953917,0.491115l-1.11711 -4.1683c0.3166,-0.175031 0.630625,-0.355724 0.940532,-0.54208l1.13049 4.21927zm-2.40822 1.15623c-0.323807,0.137451 -0.650187,0.269753 -0.979657,0.396393l-1.08262 -4.04115c0.324836,-0.143628 0.647099,-0.292404 0.966272,-0.446843l1.096 4.0916zm-2.46999 0.926118c-0.332043,0.108107 -0.666146,0.211581 -1.00334,0.309907l-1.05018 -3.91914c0.334617,-0.115314 0.664602,-0.234747 0.989953,-0.358298l1.06357 3.96753zm-2.52713 0.714022c-0.338736,0.0813378 -0.68056,0.158042 -1.02444,0.229599l-1.01827 -3.79971c0.341825,-0.0880301 0.679016,-0.180179 1.01209,-0.27696l1.03062 3.84707zm-2.57964 0.51737c-0.346458,0.0561128 -0.69446,0.107592 -1.04504,0.154439l-0.986349 -3.68131c0.346458,-0.0622903 0.690342,-0.129729 1.03217,-0.2018l0.999219 3.72867zm-2.62906 0.332043c-0.352635,0.0324322 -0.70733,0.0602311 -1.06357,0.0839118l-0.955462 -3.56496c0.352121,-0.0386097 0.702697,-0.0818526 1.05121,-0.129729l0.967817 3.61078zm-2.67694 0.157013c-0.358813,0.00978113 -0.71917,0.0149291 -1.08159,0.0159587l-0.924059 -3.44862c0.358298,-0.0164735 0.715052,-0.0365505 1.06975,-0.0617755l0.935899 3.49444zm-2.72121 -0.0113255c-0.371683,-0.0133847 -0.738732,-0.0319174 -1.10063,-0.055598l-0.886994 -3.31014 0.665631 0 0.00514796 0 0.00257398 0 0.412866 0 0.901408 3.36574zm-2.77321 -0.204889c-0.381979,-0.0437577 -0.75675,-0.0936929 -1.12586,-0.149806l-0.847354 -3.16085c0.363961,0.0308878 0.73307,0.0566276 1.10681,0.0777342l0.866402 3.23292zm-2.84322 -0.46589c-0.395878,-0.0864857 -0.783005,-0.181208 -1.16189,-0.284167l-0.783005 -2.92198c0.371168,0.0648643 0.749028,0.123551 1.13307,0.17606l0.811833 3.03009zm-2.94669 -0.851473c-0.419044,-0.154439 -0.825733,-0.321233 -1.21955,-0.499352l-0.679016 -2.53331c0.238865,0.0715567 0.480305,0.13951 0.723803,0.203859 0.148261,0.0391245 0.297037,0.0767046 0.447358,0.113255l0.727407 2.71555zm-3.1243 -1.51504c-0.471038,-0.294463 -0.917367,-0.611063 -1.34001,-0.949284l-0.465376 -1.73692c0.398452,0.193563 0.809259,0.374257 1.23139,0.54311l0.573998 2.1431zm-3.5907 -3.2566c-0.198196,-0.262546 -0.386097,-0.532299 -0.564217,-0.810804 0.13951,0.0988408 0.280564,0.195623 0.424707,0.290345l0.13951 0.520459zm21.4778 -47.6773l0.637832 0c0.170912,0 0.327925,0.0267694 0.468464,0.0761898l0.544654 2.03344 -0.542595 2.02624 -1.10836 -4.13587zm0.291889 7.18243l-0.54311 2.02675 -1.47798 -5.51655 0.542595 -2.02675 1.47849 5.51655zm-1.35906 5.07229l-0.54311 2.02624 -1.47798 -5.51655 0.54311 -2.02624 1.47798 5.51655zm-1.35958 5.0728l-0.542595 2.02675 -1.47849 -5.51655 0.54311 -2.02675 1.47798 5.51655zm-1.35906 5.07229l-0.542595 2.02624 -1.47849 -5.51655 0.54311 -2.02624 1.47798 5.51655zm-1.35906 5.0728l-0.493689 1.84297 -0.00154439 0.00514796 -0.00617755 0 -0.0442725 0.167824 -1.47541 -5.50574 0.54311 -2.02675 1.47798 5.51655zm-1.4996 4.54771c-0.137451,-0.102444 -0.265635,-0.216214 -0.384553,-0.340795 -0.114285,-0.120462 -0.220848,-0.255854 -0.319174,-0.405659l-0.00411837 -0.00823674 -0.00154439 -0.00154439 -0.000514796 0c-0.558039,-0.856621 -0.773224,-2.11272 -0.586353,-3.78838 0.00720715,-0.0669235 0.0154439,-0.134877 0.0241954,-0.20283l1.27206 4.74745zm-18.0385 -25.659c0.182238,0.266664 0.352121,0.540021 0.509648,0.8211l0.995101 3.71322 -0.54311 2.02624 -0.792271 -2.95699c0.058172,-0.995616 0.0365505,-1.94593 -0.0648643,-2.85094 -0.0283138,-0.254309 -0.0638347,-0.505015 -0.104504,-0.752632zm0.145172 9.60712l-0.542595 2.02624 -0.56679 -2.11427c0.0344913,-0.112226 0.0689827,-0.225481 0.102444,-0.339251l0.0138995 0 0.206948 -0.773224c0.080823,-0.301156 0.155468,-0.600252 0.224451,-0.89626l0.561643 2.09676zm-1.35906 5.0728l-0.54311 2.02624 -0.839632 -3.13459 0.0149291 -0.0288286c0.23938,-0.475157 0.464346,-0.959065 0.674898,-1.45018l0.692916 2.58737zm-1.35546 5.08567l-0.0205918 0.0772194 0.0195623 0c-0.0931781,0.394849 -0.179664,0.784549 -0.258942,1.16962 -0.119433,0.160616 -0.240925,0.318659 -0.364476,0.475672l-1.28442 -4.79378c0.268209,-0.378375 0.526122,-0.765502 0.774253,-1.16189l1.13461 4.23317zm-1.86665 3.17835c-0.276445,0.299611 -0.560613,0.591501 -0.851473,0.876183l-1.23448 -4.60691c0.285197,-0.307848 0.562672,-0.623418 0.832425,-0.946195l1.25353 4.67692zm-2.16317 2.07205c-0.291889,0.247102 -0.589442,0.488541 -0.892142,0.723288l-1.19227 -4.44887c0.298067,-0.254824 0.589956,-0.51634 0.875668,-0.784034l1.20874 4.50961zm-2.25893 1.71479c-0.304244,0.206433 -0.612607,0.406174 -0.925089,0.600252l-1.15417 -4.30781c0.308363,-0.212611 0.611578,-0.431399 0.910159,-0.655335l1.1691 4.3629zm-2.33769 1.42084c-0.166279,0.0900893 -0.333073,0.179149 -0.501411,0.266664 -0.149806,0.0772194 -0.300641,0.153409 -0.451476,0.228569l-1.11865 -4.175c0.31557,-0.176575 0.629081,-0.358298 0.939503,-0.546713l1.13204 4.22648zm-30.1171 19.4861l-1.08622 0 -0.911704 -3.40229c0.348002,-0.0138995 0.694975,-0.0983261 1.02239,-0.238351l0.975539 3.64064zm-2.71864 0l-1.0857 0 -0.911189 -3.39971 1.08622 0 0.910674 3.39971zm-2.71812 0l-1.08622 0 -0.910674 -3.39971 1.0857 0 0.911189 3.39971zm-2.71864 0l-1.0857 0 -0.911189 -3.39971 1.08622 0 0.910674 3.39971zm-2.71812 0l-1.08622 0 -0.910674 -3.39971 1.0857 0 0.911189 3.39971zm-2.72996 -0.0432429c-0.650702,-0.166279 -0.999219,-0.794845 -0.797934,-1.54542l0.191504 -0.716596 0.60643 2.26201zm13.9788 -4.64706l0.0221362 -0.0288286c0.114285,-0.152894 0.2157,-0.316085 0.300641,-0.486997 0.0864857,-0.174001 0.157013,-0.358813 0.209522,-0.552376l-0.00205918 -0.000514796 0.00308878 -0.00257398 0.132817 -0.496263 1.4162 5.28593c-0.222392,0.323292 -0.533844,0.592015 -0.880816,0.764472l-1.20153 -4.48284zm1.48261 -4.6136l0.542595 -2.02624 1.47798 5.51655 -0.542595 2.02624 -1.47798 -5.51655zm1.35906 -5.07229l0.542595 -2.02675 1.47849 5.51655 -0.54311 2.02675 -1.47798 -5.51655zm1.53512 -4.41489l1.08622 0 0.911189 3.39971 -0.304244 0 -0.391245 1.45893 -1.30192 -4.85865z"/>
   </g>
  </g>
 </g>
</svg>
