<?xml version="1.0" encoding="UTF-8"?>
<!DOCTYPE svg PUBLIC "-//W3C//DTD SVG 1.1//EN" "http://www.w3.org/Graphics/SVG/1.1/DTD/svg11.dtd">
<!-- Creator: CorelDRAW -->
<svg xmlns="http://www.w3.org/2000/svg" xml:space="preserve" width="658px" height="685px" style="shape-rendering:geometricPrecision; text-rendering:geometricPrecision; image-rendering:optimizeQuality; fill-rule:evenodd; clip-rule:evenodd"
viewBox="0 0 313.781 326.342"
 xmlns:xlink="http://www.w3.org/1999/xlink">
 <defs>
  <style type="text/css">
   <![CDATA[
    .fil0 {fill:none}
    .fil1 {fill:black;fill-rule:nonzero}
    .fil3 {fill:#FFF500;fill-rule:nonzero}
    .fil2 {fill:white;fill-rule:nonzero}
   ]]>
  </style>
 </defs>
 <g id="Capa_x0020_1">
  <metadata id="CorelCorpID_0Corel-Layer"/>
  <g id="_39928936">
   <rect id="_39933984" class="fil0" x="-3.33282e-005" y="-0.000215489" width="313.781" height="326.342"/>
   <g>
    <path id="_39932184" class="fil1" d="M156.891 22.845l0.00112604 0 0 0.0230838c37.6603,0 71.746,15.2561 96.4074,39.918 24.6613,24.6608 39.9169,58.7465 39.9175,96.4051l0.0230838 0 0 0.00281509 0 0.00112604 -0.0230838 0c0,37.6598 -15.2561,71.746 -39.918,96.4074 -24.6608,24.6608 -58.7465,39.9169 -96.4057,39.9175l0 0.0230838 -0.00225207 0 -0.00112604 0 0 -0.0230838c-37.6598,-0.000563019 -71.746,-15.2561 -96.4074,-39.918 -24.6613,-24.6613 -39.9169,-58.7465 -39.9175,-96.4057l-0.0230838 0 0 -0.00225207 0 -0.00112604 0.0230838 0c0.000563019,-37.6603 15.2561,-71.7466 39.918,-96.408 24.6613,-24.6608 58.7465,-39.9163 96.4057,-39.9169l0 -0.0230838 0.00225207 0z"/>
    <path id="_39931392" class="fil2" d="M222.705 192.743l0 0.00450415 -0.00112604 0 -0.00225207 0 0 -0.00450415c-1.31183,0.000563019 -2.50318,0.535431 -3.36798,1.40023l-0.00394113 0c-0.862545,0.861982 -1.39685,2.05389 -1.39685,3.36967l0.00450415 0 0 0.00112604 0 0.00281509 -0.00450415 0c0.000563019,1.31183 0.535431,2.50262 1.40023,3.36742l0 0.00450415c0.861982,0.862545 2.05446,1.39629 3.36967,1.39685l0 -0.00450415 0.00112604 0 0.00281509 0 0 0.00450415c1.31352,-0.000563019 2.50543,-0.535431 3.36967,-1.39854l-0.00168906 -0.00168906c0.864797,-0.86536 1.40079,-2.05727 1.40079,-3.37023l-0.00450415 0 0 -0.00112604 0 -0.00225207 0.00450415 0c-0.000563019,-1.31409 -0.534868,-2.50543 -1.39798,-3.37023l-0.00225207 0.00225207c-0.86536,-0.86536 -2.05727,-1.40079 -3.37023,-1.40079zm-154.542 31.6614l15.3811 0 0 -0.00450415c0.324862,0 0.675059,-0.21451 0.907586,-0.52586 0.0439155,-0.05968 0.0833268,-0.121612 0.114856,-0.185233 0.030403,-0.061369 0.0534868,-0.121049 0.0686883,-0.176788l0.00337811 -0.00337811 -0.00225207 -0.000563019 14.893 -55.5812c0.0146385,-0.0557389 0.0219577,-0.109789 0.0219577,-0.159897 0,-0.0557389 -0.00731924,-0.0934611 -0.0197057,-0.110352 -0.00563019,-0.00731924 -0.0236468,-0.0152015 -0.0534868,-0.0236468 -0.0270249,-0.00675622 -0.0636211,-0.0106974 -0.109789,-0.0106974l0 -0.00450415 -15.3805 0 0 0.00450415c-0.325425,0 -0.675622,0.215073 -0.907586,0.526423 -0.0444785,0.059117 -0.0833268,0.121612 -0.115419,0.185233 -0.02984,0.060806 -0.0534868,0.120486 -0.0686883,0.176788l-0.00337811 0.00281509 0.00225207 0.000563019 -14.893 55.5818c-0.0146385,0.0557389 -0.0219577,0.109789 -0.0219577,0.159897 0,0.0551758 0.00731924,0.0928981 0.0197057,0.110352 0.00563019,0.00675622 0.0236468,0.0146385 0.0534868,0.0230838 0.0270249,0.00675622 0.0636211,0.0106974 0.109789,0.0106974l0 0.00450415zm23.7419 -0.00450415l48.825 0c0.324862,0 0.675059,-0.21451 0.907023,-0.52586 0.0444785,-0.059117 0.0833268,-0.121612 0.114856,-0.185233 0.030403,-0.061369 0.0540498,-0.121049 0.0692513,-0.176788l0.00281509 -0.00337811 -0.00168906 -0.000563019 3.48903 -13.0215c0.0146385,-0.0557389 0.0219577,-0.109789 0.0219577,-0.159897 0,-0.0557389 -0.00731924,-0.0934611 -0.0202687,-0.110915 -0.00506717,-0.00675622 -0.0230838,-0.0146385 -0.0529238,-0.0230838 -0.0270249,-0.00675622 -0.0636211,-0.0106974 -0.109789,-0.0106974 -0.0174536,0 -0.0180166,-0.00112604 -0.0152015,-0.00225207l-0.0641841 0.00450415 -0.0709404 0.00450415 -23.7025 0 -3.04312 0 2.29937 -1.99872 32.7699 -28.4786c0.150889,-0.13062 0.26293,-0.279257 0.333307,-0.42902 0.00337811,-0.00731924 0.0140755,-0.0343441 0.030966,-0.0822007 0.0090083,-0.0247728 0.0174536,-0.0501087 0.0236468,-0.0743185l0.00394113 -0.00337811 0 0 2.99976 -11.1956c0.0146385,-0.0557389 0.0219577,-0.109789 0.0219577,-0.16046 0,-0.0551758 -0.00731924,-0.0928981 -0.0202687,-0.109789 -0.00506717,-0.00731924 -0.0230838,-0.0152015 -0.0529238,-0.0236468 -0.0270249,-0.00675622 -0.0636211,-0.0106974 -0.109789,-0.0106974l-47.8786 0c-0.324862,0 -0.675059,0.215073 -0.907023,0.526423 -0.0444785,0.059117 -0.0833268,0.121612 -0.114856,0.185233 -0.030403,0.060806 -0.0540498,0.120486 -0.0692513,0.176788l-0.00281509 0.00281509 0.00168906 0.000563019 -3.48903 13.0226c-0.0152015,0.0551758 -0.0219577,0.109226 -0.0219577,0.159897 0,0.0551758 0.00731924,0.0928981 0.0197057,0.110352 0.00506717,0.00675622 0.0236468,0.0146385 0.0529238,0.0230838 0.0270249,0.00675622 0.0641841,0.0106974 0.110352,0.0106974l22.8985 0 3.04312 0 -2.29993 1.99872 -32.7621 28.4724c-0.150326,0.130057 -0.262367,0.278694 -0.332744,0.428457l0 0.00450415c-0.00844528,0.0180166 -0.0191426,0.0450415 -0.030966,0.0776966 -0.00957132,0.0247728 -0.0174536,0.0501087 -0.0242098,0.0743185l-0.00337811 0.00337811 0 0 -2.99976 11.1956c-0.0146385,0.0557389 -0.0219577,0.109789 -0.0219577,0.159897 0,0.0551758 0.00731924,0.0928981 0.0202687,0.110352 0.00450415,0.00675622 0.0230838,0.0146385 0.0529238,0.0230838 0.0270249,0.00675622 0.0636211,0.0106974 0.109789,0.0106974zm56.7911 0l44.4126 0c0.325425,0 0.675622,-0.21451 0.907586,-0.52586 0.0444785,-0.05968 0.0833268,-0.121612 0.114856,-0.185233 0.030403,-0.061369 0.0540498,-0.121049 0.0692513,-0.176788l0.00281509 -0.00337811 -0.00168906 -0.000563019 3.51042 -13.1009c0.0146385,-0.0557389 0.0219577,-0.109789 0.0219577,-0.159897 0,-0.0557389 -0.00731924,-0.0934611 -0.0202687,-0.110352 -0.00506717,-0.00731924 -0.0236468,-0.0157645 -0.0529238,-0.0236468 -0.0270249,-0.00675622 -0.0636211,-0.0106974 -0.110352,-0.0106974l-27.5418 0 -1.48412 0 0.384542 -1.43345 1.43007 -5.33854 0.226897 -0.845654 0.872679 0 24.7768 0c0.324862,0 0.675622,-0.215073 0.907586,-0.52586 0.0439155,-0.059117 0.0827638,-0.121612 0.114856,-0.185233 0.02984,-0.061369 0.0534868,-0.121049 0.0686883,-0.176788l0.00337811 -0.00337811 -0.00225207 -0.000563019 3.25537 -12.1488c0.0146385,-0.0551758 0.0219577,-0.109226 0.0219577,-0.159334 0,-0.0557389 -0.00731924,-0.0934611 -0.0202687,-0.110915 -0.00506717,-0.00675622 -0.0236468,-0.0152015 -0.0529238,-0.0230838 -0.0270249,-0.00731924 -0.0636211,-0.0112604 -0.110352,-0.0112604l-24.7762 0 -1.48355 0 0.383979 -1.43288 1.32591 -4.94781 0.226334 -0.845654 0.873242 0 27.5367 0c0.32261,0 0.669992,-0.213384 0.90083,-0.522481 0.0439155,-0.0585539 0.0822007,-0.120486 0.11373,-0.184107 0.030403,-0.060806 0.0534868,-0.119923 0.0686883,-0.175099l0.00450415 -0.00450415 0.00112604 -0.00394113 0.200435 -0.736429 3.31224 -12.36c0.0146385,-0.0557389 0.0219577,-0.109789 0.0219577,-0.159897 0,-0.0557389 -0.00731924,-0.0934611 -0.0202687,-0.110352 -0.00506717,-0.00731924 -0.0230838,-0.0152015 -0.0529238,-0.0236468 -0.0270249,-0.00675622 -0.0636211,-0.0106974 -0.110352,-0.0106974l-44.4075 0c-0.324862,0 -0.675059,0.215073 -0.907586,0.526423 -0.0439155,0.059117 -0.0827638,0.121612 -0.114856,0.185233 -0.030403,0.060806 -0.0540498,0.120486 -0.0686883,0.176788l-0.00337811 0.00281509 0.00225207 0.000563019 -14.893 55.5818c-0.0152015,0.0557389 -0.0225207,0.109226 -0.0225207,0.159897 0,0.0551758 0.00731924,0.0928981 0.0202687,0.110352 0.00506717,0.00675622 0.0236468,0.0146385 0.0534868,0.0230838 0.0270249,0.00675622 0.0636211,0.0106974 0.109789,0.0106974zm35.9679 -70.6082l15.1446 0c0.324862,0 0.675622,-0.215073 0.907586,-0.52586 0.0444785,-0.05968 0.0833268,-0.122175 0.114856,-0.185796 0.030403,-0.060806 0.0540498,-0.120486 0.0692513,-0.176788l0.00281509 -0.00281509 -0.00168906 -0.000563019 6.81647 -25.4406 0.77021 -2.8759 1.34393 2.65801 13.3998 26.5058c0.00563019,0.0106974 0.0258989,0.0208317 0.0551758,0.028714l0 0.00112604c0.00957132,0.00225207 0.0258989,0.00450415 0.0472936,0.00675622 0.030403,0.00337811 0.0523607,0.00619321 0.0669992,0.00619321l0 0 0.029277 -0.000563019 0.0225207 -0.00450415 13.3503 0c0.32261,0 0.669992,-0.213384 0.90083,-0.521918 0.0439155,-0.059117 0.0822007,-0.121049 0.11373,-0.184107 0.030403,-0.060806 0.0534868,-0.119923 0.0686883,-0.175662l0.00450415 -0.00450415 0.000563019 -0.00337811 0.200998 -0.736992 14.6948 -54.8403c0.0146385,-0.0557389 0.0219577,-0.109226 0.0219577,-0.159897 0,-0.0551758 -0.00731924,-0.0928981 -0.0202687,-0.110352 -0.00506717,-0.00675622 -0.0236468,-0.0152015 -0.0534868,-0.0230838 -0.0270249,-0.00731924 -0.0636211,-0.0112604 -0.109789,-0.0112604l-15.1441 0c-0.324862,0 -0.675059,0.215073 -0.907586,0.526423 -0.0439155,0.05968 -0.0833268,0.121612 -0.114856,0.185233 -0.030403,0.061369 -0.0534868,0.121049 -0.0686883,0.176788l-0.00337811 0.00337811 0.00225207 0.000563019 -6.51638 24.319 -0.770773 2.87703 -1.34336 -2.65914 -12.8267 -25.3843c-0.00675622,-0.0140755 -0.0337811,-0.0264619 -0.0720664,-0.0349072 -0.0219577,-0.00450415 -0.0416634,-0.00788226 -0.0579909,-0.0090083 -0.0230838,-0.00112604 -0.0484196,-0.00112604 -0.0737555,0.000563019l0 0 -0.0129494 0.00112604 -0.0844528 0.00394113 -14.1447 0c-0.322047,0 -0.669429,0.213947 -0.900267,0.522481 -0.0439155,0.0585539 -0.0822007,0.120486 -0.11373,0.184107 -0.030403,0.060806 -0.0534868,0.119923 -0.0686883,0.175099l-0.00450415 0.00450415 -0.00112604 0.00394113 -0.202124 0.740933 -14.6931 54.8363c-0.0146385,0.0551758 -0.0219577,0.109226 -0.0219577,0.159897 0,0.0551758 0.00731924,0.0928981 0.0197057,0.109789 0.00563019,0.00675622 0.0236468,0.0152015 0.0534868,0.0230838 0.0270249,0.00731924 0.0636211,0.0112604 0.109789,0.0112604zm-34.9477 0.00450415l0.00563019 0 0.00281509 0c3.39726,0 6.64418,-0.358643 9.70025,-1.09676 0.874368,-0.210569 1.74705,-0.457734 2.61635,-0.741496 0.839461,-0.27419 1.67554,-0.586103 2.50769,-0.935737 2.2228,-0.934048 4.3116,-2.10963 6.24557,-3.53519 4.20012,-3.09604 7.65593,-7.34908 10.167,-12.8577 0.484196,-1.06185 0.938552,-2.18676 1.36138,-3.3753 0.418323,-1.17446 0.799487,-2.40184 1.14293,-3.68158l0.00394113 -0.00450415 0.00112604 -0.00337811 0.200435 -0.735865 7.91548 -29.5405c0.0135124,-0.0506717 0.0202687,-0.0996543 0.0202687,-0.145259l0.00450415 0c0,-0.0422264 -0.00731924,-0.0731924 -0.0202687,-0.090083 -0.00731924,-0.00957132 -0.0270249,-0.0191426 -0.0568649,-0.0275879 -0.029277,-0.00731924 -0.0681253,-0.0118234 -0.116545,-0.0118234l-15.5388 0c-0.32824,0 -0.678438,0.210006 -0.907586,0.513473 -0.0495456,0.0664362 -0.0883939,0.125553 -0.113167,0.175099 -0.0236468,0.0467306 -0.0450415,0.104158 -0.0624951,0.170032l-0.00337811 0.00281509 0.00225207 0.000563019 -7.85467 29.3141 0.00675622 0 -0.383979 1.43345c-0.689135,2.57131 -1.71214,4.63984 -2.9947,6.22586 -0.254484,0.314727 -0.520792,0.612001 -0.797235,0.891259 -0.273064,0.275879 -0.559078,0.535431 -0.856915,0.778092l-0.00506717 0.00394113c-0.863671,0.704336 -1.82249,1.25666 -2.85957,1.65922 -0.295585,0.114856 -0.602993,0.219577 -0.921662,0.312475 -0.312475,0.091209 -0.630018,0.170032 -0.950376,0.235905 -0.600178,0.123301 -1.22006,0.20325 -1.8574,0.240972l-0.00844528 0.02984 -0.860293 0c-0.117671,0 -0.234216,-0.00168906 -0.350198,-0.00450415l-1.14462 0 0.0225207 -0.0793856c-1.44808,-0.172847 -2.67659,-0.614253 -3.64611,-1.33098 -0.264056,-0.195368 -0.506717,-0.409315 -0.726294,-0.640152 -0.225771,-0.237031 -0.426768,-0.489263 -0.601867,-0.756134l-0.00112604 0.00112604 -0.00168906 -0.00225207 -0.00450415 -0.0090083c-0.903645,-1.37883 -1.26904,-3.2565 -1.00217,-5.64764 0.0489826,-0.443096 0.120486,-0.903645 0.212821,-1.38052 0.0934611,-0.481944 0.207754,-0.976838 0.342878,-1.48355l0.00563019 -0.0202687 0.226897 -0.845654 0.00619321 0 7.90816 -29.5134c0.0135124,-0.0506717 0.0202687,-0.0996543 0.0202687,-0.145259l0.00394113 0c0,-0.0422264 -0.00731924,-0.0731924 -0.0197057,-0.090083 -0.00731924,-0.00957132 -0.0270249,-0.0191426 -0.0568649,-0.0275879 -0.028714,-0.00731924 -0.0675622,-0.0118234 -0.116545,-0.0118234l-15.5388 0c-0.32824,0 -0.677875,0.210006 -0.907023,0.513473 -0.0456045,0.060243 -0.0838898,0.121049 -0.11373,0.179603l-0.00112604 -0.00112604c-0.0230838,0.0467306 -0.0439155,0.101906 -0.061369,0.166654l-0.00281509 0.00281509 0.00168906 0.000563019 -7.83328 29.2359 0.00619321 0 -0.383979 1.43345c-1.6823,6.27991 -1.73072,11.3291 -0.354702,15.21 0.263493,0.741496 0.575968,1.43682 0.935737,2.08373 0.359206,0.646346 0.771336,1.25553 1.23301,1.82756l0.00788226 0.00506717c1.2043,1.48862 2.73346,2.69573 4.55989,3.62866 0.599052,0.305719 1.23301,0.58385 1.90075,0.833831 0.66211,0.248291 1.36645,0.471247 2.11188,0.66774 2.5257,0.666614 5.41399,0.994854 8.62714,0.994854zm-81.5533 -0.00450415l15.3023 0c0.324862,0 0.675059,-0.215073 0.907586,-0.52586 0.0439155,-0.05968 0.0833268,-0.122175 0.114856,-0.185796 0.030403,-0.060806 0.0540498,-0.120486 0.0686883,-0.176788l0.00337811 -0.00281509 -0.00225207 -0.000563019 4.04473 -15.0957 0.226897 -0.845654 0.872679 0 4.05824 0 0.774714 0 0.284887 0.725731 6.30412 16.0522 0 0.00450415c0.00563019,0.0157645 0.029277,0.028714 0.0624951,0.0365962 0.030966,0.00788226 0.0517977,0.0123864 0.0619321,0.0135124 0.0163275,0.00112604 0.0422264,0.00112604 0.0748815,0l0 -0.000563019 0.0146385 -0.00112604 0.0715034 -0.00450415 17.5527 0c0.322047,0 0.669429,-0.213384 0.900267,-0.521918 0.0433524,-0.059117 0.0822007,-0.121049 0.11373,-0.184107 0.030403,-0.060806 0.0534868,-0.119923 0.0686883,-0.175662l0.00281509 -0.00281509 -0.00225207 -0.000563019c0.0230838,-0.0861419 0.02984,-0.157645 0.0219577,-0.212258l-0.000563019 0.000563019 -0.00788226 -0.0253358 0.00112604 0c-0.00112604,-0.00168906 -0.00337811,-0.00563019 -0.00619321,-0.0135124l0.00281509 -0.00112604 -0.367088 -0.896326 0.00112604 -0.000563019 -6.92288 -16.8061 -0.413819 -1.00443 0.987535 -0.459986c0.211695,-0.0979653 0.408189,-0.191989 0.589481,-0.281509 0.19762,-0.0968392 0.395239,-0.197057 0.59117,-0.2984 0.752193,-0.389046 1.48412,-0.807369 2.19239,-1.25384 0.0647472,-0.0411004 0.197057,-0.127242 0.411004,-0.267434l0.411004 -0.269123 0.00450415 -0.00337811c3.58643,-2.439 6.53946,-5.64257 8.55169,-9.63044 0.386231,-0.766269 0.741496,-1.57251 1.06354,-2.41817 0.318669,-0.838335 0.599615,-1.70538 0.839461,-2.60058l0.00337811 -0.00337811 -0.00225207 -0.000563019 0.0427894 -0.158208 0.167217 -0.623825c0.292207,-1.19247 0.490389,-2.32414 0.595674,-3.39444 0.121612,-1.24089 0.119923,-2.41254 -0.00337811,-3.51605 -0.123301,-1.1007 -0.366525,-2.12033 -0.72742,-3.05888 -0.356391,-0.925603 -0.837209,-1.79265 -1.44133,-2.60002l-0.438029 -0.586666c-0.153704,-0.190863 -0.313601,-0.375533 -0.478566,-0.554573l-0.00225207 0.00225207c-0.0726294,-0.0782596 -0.134561,-0.144133 -0.183544,-0.194241 -0.061369,-0.0630581 -0.124427,-0.126116 -0.188611,-0.189737l-0.00168906 -0.00168906c-0.34513,-0.338374 -0.717849,-0.660984 -1.11759,-0.965577 -0.0551758,-0.0422264 -0.133998,-0.100217 -0.234779,-0.17341 -0.108663,-0.0788226 -0.18467,-0.132872 -0.225771,-0.162149l-0.00168906 0.00281509 -0.00168906 -0.000563019 -0.0135124 -0.0135124c-1.24483,-0.857478 -2.74078,-1.56069 -4.50471,-2.09161 -0.363147,-0.109226 -0.721227,-0.207191 -1.07368,-0.294459 -2.28811,-0.564708 -4.96695,-0.863108 -8.06524,-0.863108l0 0.00394113 -0.00506717 0 -1.47229 0 0.00168906 -0.00675622 -24.6354 0c-0.325425,0 -0.675622,0.215073 -0.907586,0.526423 -0.0444785,0.059117 -0.0833268,0.121612 -0.115419,0.185233 -0.02984,0.061369 -0.0534868,0.121049 -0.0686883,0.176788l-0.00337811 0.00337811 0.00225207 0.000563019 -14.893 55.5818c-0.0146385,0.0551758 -0.0219577,0.109226 -0.0219577,0.159897 0,0.0551758 0.00731924,0.0928981 0.0197057,0.109789 0.00563019,0.00675622 0.0236468,0.0152015 0.0534868,0.0230838 0.0270249,0.00731924 0.0636211,0.0112604 0.109789,0.0112604zm24.6045 -31.5324l2.64337 -9.86353 0.226334 -0.845654 0.872679 0 7.41946 0 0.000563019 -0.00281509 0.87662 0.000563019c1.73916,0 3.17374,0.265745 4.24967,0.792167 0.23872,0.116545 0.452104,0.239846 0.639589,0.368214 0.20325,0.139066 0.392987,0.293896 0.56696,0.462801l0.0135124 0.0090083 0.00225207 0.00225207 -0.00225207 0.00225207c1.51508,1.48412 1.28762,3.85049 0.565834,5.65552 -0.356391,0.900267 -0.873242,1.69356 -1.52972,2.3613 -0.174536,0.177351 -0.349635,0.338937 -0.524733,0.483633 -0.171721,0.141881 -0.364273,0.284887 -0.577094,0.427331l0 0.00450415 -0.00281509 0.00168906 -0.00168906 -0.00281509c-0.440844,0.294459 -0.918847,0.549506 -1.43007,0.761764 -0.18467,0.0765705 -0.390172,0.153141 -0.614816,0.228586 -0.217325,0.0726294 -0.431835,0.137377 -0.641841,0.192552 -0.981905,0.258989 -2.07979,0.396365 -3.2779,0.396365l-1.48299 0.000563019 0.000563019 -0.00281509 -6.89191 0 -1.48355 0 0.383979 -1.43345z"/>
    <polygon id="_39929728" class="fil3" points="120.062,152.662 120.061,152.659 120.061,152.662 "/>
    <path id="_39929200" class="fil2" d="M210.61 137.529l-0.593985 2.21604 -1.61643 -6.03331 0.593985 -2.21604 1.61643 6.03331zm-1.48637 5.54686l-0.593985 2.2166 -1.61643 -6.03331 0.593422 -2.2166 1.61699 6.03331zm-1.48693 5.54855l-0.593422 2.21604 -1.61699 -6.03331 0.593985 -2.21604 1.61643 6.03331zm-1.48581 5.54686l-0.593985 2.21604 -1.61699 -6.03275 0.593985 -2.2166 1.61699 6.03331zm-1.6564 4.91403c-0.289392,0.28714 -0.645782,0.506717 -1.02188,0.619321l-1.25891 -4.69783c0.118234,-0.11936 0.228023,-0.245476 0.327677,-0.378912 0.12499,-0.167217 0.235905,-0.345694 0.328803,-0.532616 0.0669992,-0.135124 0.12499,-0.275879 0.173973,-0.422264l1.45034 5.4123zm-2.78469 0.703773l-1.18741 0 -0.996543 -3.71818 0.283198 0c0.29277,0 0.584976,-0.0467306 0.869301,-0.131746l1.03145 3.84992zm-2.97274 0l-1.18797 0 -0.996543 -3.71818 1.18797 0 0.996543 3.71818zm-2.9733 0l-1.18741 0 -0.996543 -3.71818 1.18797 0 0.99598 3.71818zm-2.97274 0l-1.18797 0 -0.99598 -3.71818 1.18741 0 0.996543 3.71818zm-2.9733 0l-1.18797 0 -0.99598 -3.71818 1.18741 0 0.996543 3.71818zm-3.09942 -0.47181c-0.199309,-0.252232 -0.296148,-0.589481 -0.259552,-0.968392l0.259552 0.968392zm67.511 -58.5855l0.0349072 0 1.59954 5.96856 -0.593985 2.21604 -1.61699 -6.03331 0.576531 -2.15129zm1.82868 0.0320921c0.753882,0.155393 1.16545,0.85973 0.939115,1.70595l-0.240972 0.899141 -0.698143 -2.60509zm-1.68117 11.4839l-0.593985 2.2166 -1.61643 -6.03331 0.593985 -2.21604 1.61643 6.03275zm-1.48637 5.54799l-0.593985 2.21604 -1.61643 -6.03331 0.593985 -2.21604 1.61643 6.03331zm-1.48637 5.54742l-0.593985 2.2166 -1.61643 -6.03331 0.593422 -2.21604 1.61699 6.03275zm-1.48637 5.54799l-0.593985 2.21604 -1.61699 -6.03331 0.593985 -2.21604 1.61699 6.03331zm-1.48693 5.54742l-0.593422 2.2166 -1.61699 -6.03331 0.593985 -2.2166 1.61643 6.03331zm-1.48637 5.54742l-0.593422 2.2166 -1.61699 -6.03331 0.593985 -2.21604 1.61643 6.03275zm-1.48637 5.54799l-0.593985 2.21604 -1.61643 -6.03275 0.593422 -2.2166 1.61699 6.03331zm-1.48637 5.54742l-0.593985 2.2166 -1.61643 -6.03331 0.593422 -2.21604 1.61699 6.03275zm-1.48637 5.54799l-0.381164 1.42219 -0.00675622 0c-0.0557389,0.206628 -0.145259,0.405373 -0.261241,0.589481l-1.56181 -5.82837 0.593985 -2.2166 1.61699 6.03331zm-2.14229 3.10167c-0.141881,0.0332181 -0.285451,0.0512347 -0.42902,0.0512347l-0.744874 0 -1.07368 -4.00813c0.367651,-0.166091 0.711093,-0.396365 1.00724,-0.673933l1.24033 4.63083zm-2.95923 0.0512347l-1.18741 0 -0.996543 -3.71818 1.18797 0 0.99598 3.71818zm-2.9733 0l-1.18741 0 -0.996543 -3.71818 1.18797 0 0.99598 3.71818zm-2.97274 0l-1.18741 0 -0.996543 -3.71818 1.18797 0 0.99598 3.71818zm-2.9733 0l-1.18741 0 -0.996543 -3.71818 1.18797 0 0.99598 3.71818zm-3.16642 -0.723479l-1.51396 -2.9947 0.711656 0 0.802302 2.9947zm-118.15 -41.5114l-1.18797 0 -0.996543 -3.71818 0.402558 0c0.280946,0.0106974 0.54838,0.030403 0.801176,0.0585539l0.980779 3.65962zm-2.9733 0l-1.18797 0 -0.99598 -3.71818 1.18741 0 0.996543 3.71818zm-2.97274 0l-1.18797 0 -0.99598 -3.71818 1.18741 0 0.996543 3.71818zm-2.27741 2.59721l-0.340063 1.26904 -0.507843 0 -1.36251 -5.08575 0.593422 -2.2166 1.61699 6.03331zm-2.63268 1.26904l-0.940804 0 0.470684 -1.75493 0.470121 1.75493zm11.7958 -7.02084c0.109226,0.0551758 0.219014,0.120486 0.325988,0.193678 0.0957132,0.0658732 0.180729,0.133998 0.253921,0.20325l-0.00225207 0.00168906 0.00225207 0.00225207 0.0129494 0.0090083c0.327114,0.317543 0.486448,0.794419 0.456045,1.43063 -0.00675622,0.146385 -0.0242098,0.302904 -0.0512347,0.468995l-0.0163275 0.0957132 -0.08952 0.372155 -0.0641841 0.240972 -0.000563019 0.00281509 -0.0090083 0.0326551 -0.818066 -3.05381zm92.0474 99.428l0.52586 0c0.270812,0 0.510095,0.0624951 0.708278,0.174536l0.485885 1.81179 -0.593985 2.21604 -1.12604 -4.20237zm0.23309 7.53432l-0.593985 2.2166 -1.61643 -6.03331 0.593985 -2.2166 1.61643 6.03331zm-1.48637 5.54742l-0.470684 1.75718c-0.0349072,0.13062 -0.0838898,0.257863 -0.144133,0.380601l-1.5956 -5.95505 0.593985 -2.21604 1.61643 6.03331zm-2.0629 3.39613c-0.196494,0.0636211 -0.398617,0.0985283 -0.599615,0.0985283l-0.561893 0 -1.09451 -4.08526c0.366525,-0.188048 0.704336,-0.439155 0.99035,-0.736429l1.26567 4.72316zm-2.94628 0.0985283l-1.18797 0 -0.99598 -3.71818 1.18741 0 0.996543 3.71818zm-2.9733 0l-1.18741 0 -0.996543 -3.71818 1.18741 0 0.996543 3.71818zm-2.97274 0l-1.18741 0 -0.996543 -3.71818 1.18741 0 0.996543 3.71818zm-2.9733 0l-1.18741 0 -0.996543 -3.71818 1.18741 0 0.996543 3.71818zm-2.97274 0l-1.18741 0 -0.996543 -3.71818 1.18741 0 0.996543 3.71818zm-2.9733 0l-1.18741 0 -0.996543 -3.71818 1.18797 0 0.99598 3.71818zm-2.97274 0l-1.18741 0 -0.996543 -3.71818 1.18797 0 0.99598 3.71818zm-2.9733 0l-1.18741 0 -0.996543 -3.71818 1.18797 0 0.99598 3.71818zm-2.97274 0l-1.18741 0 -0.996543 -3.71818 1.18797 0 0.99598 3.71818zm-2.9733 0l-1.18741 0 -0.99598 -3.71818 1.18741 0 0.99598 3.71818zm-2.97274 0l-1.18741 0 -0.99598 -3.71818 1.18741 0 0.99598 3.71818zm-2.9733 0l-1.18741 0 -0.99598 -3.71818 1.18741 0 0.99598 3.71818zm-2.97274 0l-1.18741 0 -0.996543 -3.71818 1.18741 0 0.996543 3.71818zm-2.97274 0l-1.18797 0 -0.99598 -3.71818 1.18741 0 0.996543 3.71818zm-2.9733 0l-0.443659 0c-0.317543,0 -0.592296,-0.0867049 -0.807369,-0.237031l-0.427894 -1.59672 0.505028 -1.88442 0.177914 0 0.99598 3.71818zm51.1868 -37.5393l0.0748815 0c0.953191,0 1.5179,0.778655 1.2606,1.73804l-0.435213 1.62318 -0.900267 -3.36122zm0.00788226 6.69317l-0.593985 2.21604 -1.61643 -6.03331 0.593985 -2.21604 1.61643 6.03331zm-1.48637 5.54799l-0.441407 1.6457c-0.0422264,0.158208 -0.104721,0.310786 -0.182981,0.456608l-1.58602 -5.91958 0.593422 -2.21604 1.61699 6.03331zm-2.08824 3.30154c-0.179603,0.0529238 -0.362584,0.0816377 -0.545002,0.0816377l-0.0534868 0c-0.198183,-0.188048 -0.429583,-0.341189 -0.688572,-0.452104l-0.966703 -3.60726c0.367088,-0.180166 0.706589,-0.425079 0.99598,-0.715034l1.25778 4.69276zm-3.12813 -0.577094l-1.18741 0 -0.819755 -3.05944 1.18741 0 0.819755 3.05944zm-2.97274 0l-1.18741 0 -0.819755 -3.05944 1.18741 0 0.819755 3.05944zm-2.9733 0l-1.18741 0 -0.819755 -3.05944 1.18797 0 0.819192 3.05944zm-2.97274 0l-1.18741 0 -0.819755 -3.05944 1.18797 0 0.819192 3.05944zm-2.9733 0l-1.18741 0 -0.819755 -3.05944 1.18797 0 0.819192 3.05944zm-2.97274 0l-1.18741 0 -0.819755 -3.05944 1.18797 0 0.819192 3.05944zm-2.97274 0l-1.18797 0 -0.819755 -3.05944 1.18797 0 0.819755 3.05944zm-2.97274 0l-1.18797 0 -0.819755 -3.05944 1.18797 0 0.819755 3.05944zm-2.9733 0l-1.18797 0 -0.139066 -0.520229 0.593985 -2.21604 0.73305 2.73627zm37.5725 -36.4831l0.219577 0 1.5072 5.62343 -0.593985 2.21604 -1.61643 -6.03331 0.483633 -1.80616zm2.02856 0.0883939c0.624388,0.229712 0.944745,0.881687 0.739244,1.64908l-0.148637 0.554573 -0.590607 -2.20366zm-1.78815 11.083l-0.593985 2.21604 -1.61643 -6.03331 0.593422 -2.21604 1.61699 6.03331zm-1.69187 4.78116c-0.299526,0.271375 -0.661547,0.471247 -1.03708,0.562456l-1.24315 -4.63871c0.152015,-0.143007 0.291081,-0.2984 0.414382,-0.463364 0.0703773,-0.0940241 0.135688,-0.191426 0.195931,-0.292207l0.141881 0 0.116545 -0.435213 1.41149 5.26704zm-2.80777 0.617632l-1.18741 0 -0.996543 -3.71818 0.400306 0c0.255611,0 0.510658,-0.0354702 0.760075,-0.101343l1.02357 3.81952zm-2.97274 0l-0.845654 0c-0.0208317,-0.030403 -0.0416634,-0.060243 -0.0636211,-0.08952 -0.120486,-0.162149 -0.261241,-0.307971 -0.418886,-0.432961l-0.855788 -3.19569 1.18741 0 0.996543 3.71818zm-3.25425 -1.04947l-1.18797 0 -0.715034 -2.66871 1.18797 0 0.715034 2.66871zm-2.9733 0l-1.18797 0 -0.715034 -2.66871 1.18797 0 0.715034 2.66871zm-2.97274 0l-1.18797 0 -0.715034 -2.66871 1.18797 0 0.715034 2.66871zm-2.9733 0l-1.18797 0 -0.714471 -2.66871 1.18741 0 0.715034 2.66871zm-2.97274 0l-1.18797 0 -0.714471 -2.66871 1.18741 0 0.715034 2.66871zm-2.9733 0l-1.18741 0 -0.715034 -2.66871 1.18741 0 0.715034 2.66871zm-2.97274 0l-1.18741 0 -0.715034 -2.66871 1.18741 0 0.715034 2.66871zm-2.9733 0l-1.18741 0 -0.468432 -1.74817 0.246602 -0.920536 0.694202 0 0.715034 2.66871zm-32.4817 27.0457l1.07987 0 0.538809 2.00998 -0.593985 2.21604 -1.07874 -4.02558 0.0540498 -0.200435zm0.131746 7.5574l-0.547254 2.04376c-0.0163275,0.061369 -0.030966,0.122175 -0.0433524,0.182418l-1.08156 -4.03572 0.593985 -2.21604 1.07818 4.02558zm-0.962199 7.50391c-0.188611,0.42339 -0.515725,0.793293 -0.905897,1.05059l-1.35913 -5.07167c0.0484196,-0.0793856 0.0934611,-0.16046 0.134561,-0.243787 0.0945871,-0.189737 0.172284,-0.391861 0.229149,-0.604119l-0.00168906 0 0.00281509 -0.00337811 0.297274 -1.10971 1.60291 5.98207zm-2.58989 1.42894l-1.18741 0 -1.00443 -3.74802c0.37666,-0.0540498 0.747126,-0.179603 1.09057,-0.361458l1.10126 4.10947zm-2.97274 0l-1.18797 0 -0.996543 -3.71818 1.18797 0 0.996543 3.71818zm-2.97274 0l-1.18797 0 -0.996543 -3.71818 1.18797 0 0.996543 3.71818zm-2.9733 0l-1.18797 0 -0.99598 -3.71818 1.18741 0 0.996543 3.71818zm-2.97274 0l-1.18797 0 -0.99598 -3.71818 1.18741 0 0.996543 3.71818zm-2.9733 0l-1.18797 0 -0.99598 -3.71818 1.18741 0 0.996543 3.71818zm-2.97274 0l-1.18797 0 -0.99598 -3.71818 1.18741 0 0.996543 3.71818zm-2.9733 0l-1.18797 0 -0.99598 -3.71818 1.18741 0 0.996543 3.71818zm-2.97274 0l-1.18797 0 -0.99598 -3.71818 1.18741 0 0.996543 3.71818zm-2.9733 0l-1.18741 0 -0.996543 -3.71818 1.18797 0 0.99598 3.71818zm-2.9733 0l-1.18741 0 -0.996543 -3.71818 1.18797 0 0.99598 3.71818zm-2.97274 0l-1.18741 0 -0.996543 -3.71818 1.18797 0 0.99598 3.71818zm-2.97274 0l-1.18797 0 -0.99598 -3.71818 1.18741 0 0.996543 3.71818zm-2.9733 0l-1.18741 0 -0.996543 -3.71818 1.18797 0 0.99598 3.71818zm-2.97274 0l-1.18797 0 -0.99598 -3.71818 1.18741 0 0.996543 3.71818zm-2.9733 0l-1.18741 0 -0.996543 -3.71818 1.18797 0 0.99598 3.71818zm-2.97274 0l-0.748252 0c-0.164964,0 -0.318106,-0.0230838 -0.457171,-0.0669992l-0.625514 -2.33371 0.35245 -1.31746 0.481944 0 0.996543 3.71818zm63.2591 -59.0567l0.641278 0c0.213384,0 0.405937,0.0382853 0.575405,0.109226l0.0230838 0.0855788 -0.593985 2.21604 -0.645782 -2.41085zm-0.247165 5.74279l-0.593985 2.21604 -1.07818 -4.02558 0.593422 -2.2166 1.07874 4.02615zm-1.48637 5.54686l-0.593422 2.2166 -1.14968 -4.28964 0.000563019 -0.00112604 0.141318 0 0.226334 -0.845654 0.296711 -1.10577 1.07818 4.02558zm-1.82474 4.28626l-0.963325 0.837209 -1.31577 -4.91178 0.963325 -0.837209 1.31577 4.91178zm-2.41141 2.09556l-0.963325 0.837209 -1.31577 -4.91178 0.963325 -0.837209 1.31577 4.91178zm-2.41141 2.09556l-0.963325 0.837209 -1.31634 -4.91121 0.963888 -0.837209 1.31577 4.91121zm-2.41141 2.09612l-0.963325 0.836646 -1.31634 -4.91121 0.963325 -0.837209 1.31634 4.91178zm-2.41141 2.09556l-0.963325 0.837209 -1.31634 -4.91178 0.963888 -0.837209 1.31577 4.91178zm-2.41141 2.09556l-0.963325 0.837209 -1.31634 -4.91178 0.963325 -0.837209 1.31634 4.91178zm-2.41141 2.09556l-0.963325 0.837209 -1.31634 -4.91178 0.963325 -0.837209 1.31634 4.91178zm-2.41141 2.09556l-0.963325 0.837209 -1.31634 -4.91121 0.963325 -0.837209 1.31634 4.91121zm-2.41141 2.09556l-0.963325 0.837209 -1.31634 -4.91121 0.963888 -0.837209 1.31577 4.91121zm-2.41197 2.09612l-0.962762 0.837209 -1.31634 -4.91178 0.963325 -0.837209 1.31577 4.91178zm-2.41085 2.09499l-0.0422264 0.0371592 -1.13561 0 -1.10183 -4.11116 0.963325 -0.837209 1.31634 4.91121zm-2.96373 0.0371592l-1.18741 0 -0.539935 -2.01504 0.963325 -0.837209 0.764016 2.85225zm-2.97274 0l-1.07311 0 0.870427 -0.75726 0.202687 0.75726zm-5.5812 -20.0716l-0.984157 0 -0.996543 -3.71818 1.18797 0 0.957695 3.57517 -0.164964 0.143007zm-2.77005 0l-1.18741 0 -0.996543 -3.71818 1.18797 0 0.99598 3.71818zm-2.97274 0l-1.18741 0 -0.996543 -3.71818 1.18797 0 0.99598 3.71818zm-2.9733 0l-1.18741 0 -0.996543 -3.71818 1.18797 0 0.99598 3.71818zm-2.97274 0l-0.778655 0c-0.151452,0 -0.293896,-0.0202687 -0.423953,-0.0568649l-0.64353 -2.40071 0.337811 -1.2606 0.512347 0 0.99598 3.71818zm12.6809 -3.71818l1.18797 0 0.396365 1.47961 -0.963325 0.837209 -0.62101 -2.31682zm2.9733 0l0.313038 0 -0.253921 0.220703 -0.059117 -0.220703zm-21.2618 -12.7783c0.917721,0.030403 1.45484,0.796672 1.20261,1.73635l-0.368214 1.37658 -0.834394 -3.11293zm-0.0585539 6.44488l-0.593985 2.21604 -1.61643 -6.03331 0.593422 -2.21604 1.61699 6.03331zm-1.48693 5.54799l-0.593422 2.21604 -1.61699 -6.03331 0.593985 -2.21604 1.61643 6.03331zm-1.48637 5.54742l-0.593422 2.21604 -1.61699 -6.03331 0.593985 -2.21604 1.61643 6.03331zm-1.48637 5.54799l-0.593985 2.21604 -1.61643 -6.03331 0.593985 -2.21604 1.61643 6.03331zm-1.48637 5.54742l-0.593985 2.21604 -1.61643 -6.03331 0.593985 -2.21604 1.61643 6.03331zm-1.48637 5.54799l-0.593985 2.21604 -1.61643 -6.03331 0.593422 -2.2166 1.61699 6.03387zm-1.57139 5.22988c-0.221829,0.219014 -0.408752,0.459986 -0.560767,0.711656l-0.141318 0 -0.147511 0.551195 -1.2758 -4.76258 0.593422 -2.21604 1.53197 5.71577zm-1.74254 4.59423l-0.593422 2.2166 -1.27636 -4.76258 0.593985 -2.2166 1.2758 4.76258zm-1.48637 5.54799l-0.593422 2.21604 -1.27636 -4.76258 0.593985 -2.21604 1.2758 4.76258zm-1.14574 6.81816l-0.253358 0.944182c-0.0833268,0.310786 -0.242661,0.601867 -0.452667,0.854662l-1.50439 -5.61555 0.593985 -2.2166 1.61643 6.03331zm-2.25714 2.67152c-0.0630581,0.00675622 -0.125553,0.0101343 -0.188048,0.0101343l-0.997106 0 -1.0489 -3.91467c0.36934,-0.136251 0.720101,-0.337248 1.03032,-0.587229l1.20373 4.49176zm-2.97049 0.0101343l-1.18741 0 -0.997669 -3.72268 1.18797 0 0.997106 3.72268zm-2.97274 0l-1.18797 0 -0.997106 -3.72268 1.18741 0 0.997669 3.72268zm-2.9733 0l-1.18741 0 -0.997669 -3.72268 1.18797 0 0.997106 3.72268zm-2.97274 0l-1.18797 0 -0.997106 -3.72268 1.18741 0 0.997669 3.72268zm-2.9733 0l-0.706025 0c-0.182981,0 -0.351887,-0.028714 -0.503339,-0.0822007l-0.600741 -2.24081 0.375533 -1.39966 0.437466 0 0.997106 3.72268zm157.753 -32.4445l0.0546128 0.0489826 1.65302 6.17069c-0.179603,0.56133 -0.440281,1.08606 -0.769084,1.56012l-1.47173 -5.49112c0.297837,-0.711093 0.483633,-1.48074 0.533179,-2.28867zm-0.463927 9.2093c-0.320358,0.231401 -0.664362,0.431272 -1.02864,0.595674l-1.24765 -4.65673c0.242661,-0.186922 0.473499,-0.388483 0.689698,-0.604119l0.00394113 0c0.088957,-0.088957 0.175099,-0.180729 0.258989,-0.27419l1.32366 4.93936zm-2.68729 1.06636c-0.251106,0.0326551 -0.506717,0.0501087 -0.766832,0.0501087 -0.138503,0 -0.275879,-0.00563019 -0.411567,-0.0146385l-1.04553 -3.90341c0.376097,-0.090646 0.740933,-0.210569 1.09113,-0.358643l1.13279 4.22658zm-3.08703 -0.423953c-0.514036,-0.22014 -0.990913,-0.511221 -1.41824,-0.860293l-0.672244 -2.50881c0.396365,0.0743185 0.803428,0.114856 1.22006,0.119923l0.870427 3.24918zm-101.059 -55.0655l0.252795 0.61369 1.38221 5.15838c-0.213384,0.394113 -0.546128,0.731361 -0.93067,0.959384l-1.34111 -5.00411c0.0799487,-0.11936 0.153141,-0.24435 0.216762,-0.372718 0.0945871,-0.189174 0.171721,-0.390735 0.228586,-0.60243l-0.00168906 -0.000563019 0.00281509 -0.00281509c0.0630581,-0.235342 0.0951502,-0.467306 0.0990913,-0.693076l0.091209 -0.0557389zm-0.997669 7.04336l-1.18797 0 -0.999921 -3.73338c0.378349,-0.0382853 0.75163,-0.150326 1.10126,-0.320921l1.08663 4.0543zm-2.97274 0l-1.18797 0 -0.99598 -3.71818 1.18741 0 0.996543 3.71818zm-2.9733 0l-1.18797 0 -0.99598 -3.71818 1.18741 0 0.996543 3.71818zm-2.97274 0l-1.18797 0 -0.99598 -3.71818 1.18741 0 0.996543 3.71818zm-2.9733 0l-1.18797 0 -0.99598 -3.71818 1.18741 0 0.996543 3.71818zm-2.97274 0l-1.18797 0 -0.99598 -3.71818 1.18741 0 0.996543 3.71818zm-3.051 -0.290518c-0.150889,-0.124427 -0.270249,-0.286014 -0.347383,-0.48307l-1.15588 -2.94459 0.584976 0 0.918284 3.42766zm90.0948 -58.76l0.911527 0c0.0985283,0 0.192552,0.00788226 0.282635,0.0236468l0.718975 2.68222 -0.593985 2.2166 -1.31915 -4.92247zm0.426205 8.25329l-0.593422 2.21604 -1.61699 -6.03331 0.593985 -2.21604 1.61643 6.03331zm-1.48637 5.54742l-0.593985 2.2166 -1.61643 -6.03331 0.593985 -2.21604 1.61643 6.03275zm-1.48637 5.54799l-0.593985 2.21604 -1.61643 -6.03331 0.593985 -2.21604 1.61643 6.03331zm-1.48637 5.54742l-0.593985 2.2166 -1.61643 -6.03331 0.593985 -2.21604 1.61643 6.03275zm-1.48637 5.54799l-0.412693 1.53986 -0.00112604 0.00450415 -0.00675622 0c-0.0585539,0.217888 -0.118797,0.434087 -0.179603,0.649161l-1.61023 -6.01079 0.593422 -2.21604 1.61699 6.03331zm-1.56744 5.24565c-0.221829,0.626077 -0.453793,1.23808 -0.695891,1.83713l-1.54267 -5.75799c0.060243,-0.162712 0.119923,-0.325425 0.177914,-0.489826 0.169469,-0.476314 0.332744,-0.959947 0.489826,-1.45034l1.57082 5.86103zm-1.80785 4.35101c-0.251106,0.519666 -0.510658,1.02807 -0.778655,1.52578l-1.48243 -5.53335c0.193678,-0.391298 0.382853,-0.788226 0.56696,-1.19191 0.0636211,-0.139629 0.126116,-0.27982 0.188611,-0.420575l1.50551 5.62005zm-2.00041 3.62753c-0.27419,0.437466 -0.555699,0.864797 -0.843965,1.28256l-1.43007 -5.33629c0.282072,-0.443096 0.556263,-0.895763 0.823696,-1.35856l1.45034 5.4123zm-2.15467 3.05607c-0.29277,0.369903 -0.591733,0.731361 -0.896889,1.08437l-1.38221 -5.1595c0.298963,-0.375533 0.591733,-0.760638 0.878309,-1.15363l1.40079 5.22876zm-2.27966 2.58482c-0.308534,0.314164 -0.622699,0.619884 -0.941367,0.918284l-1.33942 -4.99792c0.313601,-0.319795 0.621573,-0.646346 0.924477,-0.981342l1.35631 5.06098zm-2.3872 2.18789c-0.322047,0.265745 -0.648598,0.52417 -0.979653,0.775277l-1.29832 -4.84534c0.325988,-0.271375 0.647472,-0.549506 0.963888,-0.834957l1.31409 4.90502zm-2.47841 1.84445c-0.334433,0.222955 -0.672244,0.439155 -1.014,0.648598l-1.25891 -4.69952c0.33387,-0.226897 0.664362,-0.460549 0.990913,-0.701521l0.00731924 -0.00506717 1.27467 4.75751zm-2.56117 1.53873c-0.344567,0.185233 -0.69195,0.364836 -1.04327,0.53712l-1.22175 -4.55876c0.346257,-0.191426 0.689135,-0.389046 1.02864,-0.592859l1.23639 4.6145zm-2.6338 1.26454c-0.354139,0.150326 -0.711093,0.295022 -1.07142,0.433524l-1.18403 -4.4197c0.355265,-0.157082 0.707715,-0.319795 1.05679,-0.4887l1.19867 4.47487zm-2.70193 1.01287c-0.362584,0.118234 -0.727983,0.231401 -1.09676,0.338937l-1.14856 -4.28626c0.365962,-0.126116 0.726857,-0.256737 1.08269,-0.391861l1.16263 4.33919zm-2.7633 0.780907c-0.370466,0.088957 -0.744311,0.172847 -1.12041,0.251106l-1.11365 -4.15564c0.373844,-0.0962762 0.742622,-0.197057 1.10689,-0.302904l1.12716 4.20744zm-2.82129 0.565834c-0.378912,0.061369 -0.759512,0.117671 -1.14293,0.168906l-1.07874 -4.02615c0.378912,-0.0681253 0.755008,-0.141881 1.12885,-0.220703l1.09282 4.07794zm-2.8759 0.363147c-0.385105,0.0354702 -0.773025,0.0658732 -1.16263,0.0917721l-1.04496 -3.8989c0.385105,-0.0422264 0.768521,-0.08952 1.14968,-0.141881l1.05791 3.94901zm-2.92713 0.171721c-0.392424,0.0106974 -0.786537,0.0163275 -1.1829,0.0174536l-1.01062 -3.77166c0.391861,-0.0180166 0.782033,-0.0399743 1.16939,-0.0675622l1.02413 3.82177zm-2.97612 -0.0123864c-0.4065,-0.0146385 -0.807932,-0.0349072 -1.20373,-0.060806l-0.970081 -3.62021 0.727983 0 0.00563019 0 0.00281509 0 0.450978 0 0.986409 3.68102zm-3.03298 -0.224081c-0.41776,-0.0478566 -0.827638,-0.102469 -1.23189,-0.163838l-0.926166 -3.45694c0.398054,0.0337811 0.801739,0.0619321 1.21049,0.0850158l0.947561 3.53576zm-3.10955 -0.509532c-0.432961,-0.0945871 -0.856915,-0.198183 -1.27073,-0.310786l-0.856352 -3.19569c0.405937,0.0709404 0.819192,0.135124 1.2392,0.192552l0.887881 3.31393zm-3.22272 -0.931233c-0.458297,-0.168906 -0.903082,-0.351324 -1.33379,-0.546128l-0.742622 -2.77062c0.261241,0.0782596 0.525296,0.152578 0.791604,0.222955 0.162149,0.0427894 0.324862,0.0838898 0.489263,0.123864l0.795545 2.96992zm-3.41696 -1.65696c-0.515162,-0.322047 -1.00386,-0.668303 -1.46554,-1.03821l-0.509532 -1.89963c0.43634,0.211695 0.885628,0.409315 1.3473,0.593985l0.627766 2.34385zm-3.92706 -3.56166c-0.216762,-0.28714 -0.422264,-0.582161 -0.617069,-0.886755 0.152578,0.1081 0.306845,0.213947 0.46449,0.317543l0.152578 0.569212zm23.4897 -52.1434l0.69758 0c0.186922,0 0.35808,0.029277 0.512347,0.0833268l0.595674 2.22392 -0.593985 2.21604 -1.21162 -4.52329zm0.319232 7.85524l-0.593985 2.2166 -1.61643 -6.03331 0.593422 -2.2166 1.61699 6.03331zm-1.48637 5.54742l-0.593985 2.21604 -1.61643 -6.03331 0.593422 -2.21604 1.61699 6.03331zm-1.48693 5.54799l-0.593985 2.2166 -1.61643 -6.03331 0.593985 -2.2166 1.61643 6.03331zm-1.48637 5.54742l-0.593422 2.21604 -1.61699 -6.03331 0.593985 -2.21604 1.61643 6.03331zm-1.48637 5.54799l-0.539935 2.01561 -0.00168906 0.00563019 -0.00675622 0 -0.0484196 0.183544 -1.61361 -6.02149 0.593422 -2.2166 1.61699 6.03331zm-1.64007 4.97371c-0.150326,-0.112041 -0.290518,-0.236468 -0.420575,-0.372718 -0.12499,-0.131746 -0.241535,-0.27982 -0.349072,-0.443659l-0.00450415 -0.0090083 -0.00168906 -0.00168906 -0.000563019 0c-0.610312,-0.936863 -0.845654,-2.31063 -0.641278,-4.14325 0.00788226,-0.0731924 0.0168906,-0.147511 0.0264619,-0.221829l1.39122 5.19216zm-19.7287 -28.0625c0.199872,0.291644 0.385668,0.590607 0.557952,0.898015l1.08832 4.06105 -0.593985 2.21604 -0.866486 -3.23398c0.0636211,-1.08888 0.0399743,-2.12821 -0.0709404,-3.118 -0.030966,-0.278131 -0.0698143,-0.552321 -0.114856,-0.823133zm0.159334 10.5071l-0.593985 2.21604 -0.619321 -2.31232c0.0377223,-0.122738 0.0754445,-0.246602 0.112041,-0.371029l0.0152015 0 0.226334 -0.845654c0.0883939,-0.329366 0.170032,-0.65648 0.245476,-0.980216l0.614253 2.29318zm-1.48637 5.54799l-0.593985 2.21604 -0.918284 -3.42822 0.0163275 -0.031529c0.261804,-0.519666 0.507843,-1.0489 0.738118,-1.58602l0.757823 2.82973zm-1.48243 5.56206l-0.0225207 0.0844528 0.0213947 0c-0.101906,0.431835 -0.196494,0.858041 -0.283198,1.27918 -0.13062,0.175662 -0.263493,0.348509 -0.398617,0.520229l-1.40473 -5.24283c0.293333,-0.413819 0.575405,-0.837209 0.84678,-1.27073l1.24089 4.6297zm-2.04151 3.47608c-0.302341,0.327677 -0.613127,0.646909 -0.931233,0.958258l-1.35012 -5.03845c0.311912,-0.336685 0.615379,-0.681816 0.910401,-1.03483l1.37095 5.11503zm-2.3658 2.26615c-0.319232,0.270249 -0.644656,0.534305 -0.975711,0.791041l-1.30395 -4.86561c0.325988,-0.278694 0.645219,-0.564708 0.957695,-0.857478l1.32197 4.93204zm-2.47053 1.87542c-0.332744,0.225771 -0.669992,0.444222 -1.01174,0.65648l-1.26229 -4.71134c0.336685,-0.232527 0.668866,-0.47181 0.995417,-0.716723l1.27862 4.77158zm-2.55667 1.55393c-0.181855,0.0985283 -0.364273,0.195931 -0.54838,0.291644 -0.163838,0.0844528 -0.328803,0.16778 -0.493767,0.24998l-1.224 -4.56608c0.345694,-0.193115 0.688572,-0.391861 1.02751,-0.597926l1.23864 4.62238zm-32.9383 21.3114l-1.18797 0 -0.997106 -3.72099c0.380601,-0.0152015 0.760075,-0.107537 1.11816,-0.260678l1.06692 3.98167zm-2.9733 0l-1.18741 0 -0.996543 -3.71818 1.18797 0 0.99598 3.71818zm-2.97274 0l-1.18797 0 -0.99598 -3.71818 1.18741 0 0.996543 3.71818zm-2.9733 0l-1.18741 0 -0.996543 -3.71818 1.18797 0 0.99598 3.71818zm-2.97274 0l-1.18797 0 -0.99598 -3.71818 1.18741 0 0.996543 3.71818zm-2.98569 -0.0472936c-0.711656,-0.181855 -1.09282,-0.869301 -0.872679,-1.69018l0.209443 -0.783722 0.663236 2.4739zm15.2882 -5.08237l0.0242098 -0.031529c0.124427,-0.167217 0.235905,-0.345694 0.328803,-0.532616 0.0945871,-0.1903 0.171721,-0.392424 0.229149,-0.604119l-0.00225207 -0.000563019 0.00337811 -0.00281509 0.145259 -0.54275 1.54886 5.78108c-0.243224,0.353576 -0.58385,0.647472 -0.963325,0.836083l-1.31409 -4.90277zm1.62093 -5.04577l0.593985 -2.21604 1.61643 6.03331 -0.593422 2.21604 -1.61699 -6.03331zm1.48693 -5.54742l0.593422 -2.2166 1.61699 6.03331 -0.593985 2.2166 -1.61643 -6.03331zm1.67892 -4.82845l1.18797 0 0.99598 3.71818 -0.332744 0 -0.427331 1.5956 -1.42387 -5.31377z"/>
   </g>
  </g>
 </g>
</svg>
