<?xml version="1.0" encoding="UTF-8"?>
<!DOCTYPE svg PUBLIC "-//W3C//DTD SVG 1.1//EN" "http://www.w3.org/Graphics/SVG/1.1/DTD/svg11.dtd">
<!-- Creator: CorelDRAW -->
<svg xmlns="http://www.w3.org/2000/svg" xml:space="preserve" width="658px" height="685px" style="shape-rendering:geometricPrecision; text-rendering:geometricPrecision; image-rendering:optimizeQuality; fill-rule:evenodd; clip-rule:evenodd"
viewBox="0 0 157.943 164.265"
 xmlns:xlink="http://www.w3.org/1999/xlink">
 <defs>
  <style type="text/css">
   <![CDATA[
    .fil0 {fill:none}
    .fil1 {fill:black;fill-rule:nonzero}
   ]]>
  </style>
 </defs>
 <g id="Capa_x0020_1">
  <metadata id="CorelCorpID_0Corel-Layer"/>
  <g id="_40064376">
   <rect id="_40144184" class="fil0" x="-1.67759e-005" y="-0.000108467" width="157.943" height="164.266"/>
   <g>
    <path id="_40142512" class="fil1" d="M78.971 11.4991l0.000566795 0 0 0.0116193c18.9565,0 36.1139,7.67923 48.5273,20.0929 12.4131,12.4131 20.092,29.5703 20.0926,48.5259l0.0116193 0 0 0.00141699 0 0.000566795 -0.0116193 0c-0.000283398,18.9562 -7.67951,36.1136 -20.0929,48.527 -12.4134,12.4131 -29.5703,20.0923 -48.5262,20.0926l0 0.0116193 -0.00141699 0 -0.000566795 0 0 -0.0116193c-18.9562,-0.000283398 -36.1136,-7.67923 -48.527,-20.0929 -12.4131,-12.4134 -20.0923,-29.5703 -20.0926,-48.5262l-0.0116193 0 0 -0.00113359 0 -0.000566795 0.0116193 0c0.000283398,-18.9565 7.67923,-36.1139 20.0929,-48.5273 12.4134,-12.4131 29.5703,-20.092 48.5262,-20.0923l0 -0.0116193 0.00113359 0zm0.000566795 5.93406l0 0.0116193 -0.000566795 0 -0.00113359 0 0 -0.0116193c-17.2992,0 -32.9708,7.02231 -44.3223,18.3738 -11.3518,11.3515 -18.3741,27.0237 -18.3744,44.3234l0.0116193 0 0 0.000566795 0 0.00113359 -0.0116193 0c0.000283398,17.2992 7.02259,32.9708 18.3741,44.3223 11.3515,11.3521 27.0237,18.3744 44.3231,18.3744l0 -0.0116193 0.000566795 0 0.00141699 0 0 0.0116193c17.2989,-0.000283398 32.9708,-7.02259 44.3223,-18.3738 11.3518,-11.3518 18.3741,-27.0239 18.3744,-44.3234l-0.0116193 0 0 -0.000566795 0 -0.00141699 0.0116193 0c-0.000283398,-17.2989 -7.02259,-32.9708 -18.3741,-44.3223 -11.3515,-11.3518 -27.0237,-18.3741 -44.3234,-18.3741z"/>
    <path id="_40159464" class="fil1" d="M112.099 97.0178l0 0.00226718 -0.000566795 0 -0.00141699 0 0 -0.00226718c-0.660033,0.000283398 -1.2597,0.269511 -1.695,0.70481l-0.00226718 0c-0.434165,0.433882 -0.702826,1.03383 -0.70311,1.69613l0.00226718 0 0 0.000566795 0 0.00141699 -0.00226718 0c0.000283398,0.660316 0.269795,1.2597 0.70481,1.695l0 0.00226718c0.434165,0.434165 1.03412,0.702826 1.69642,0.70311l0 -0.00226718 0.000566795 0 0.00113359 0 0 0.00226718c0.661167,-0.000283398 1.26112,-0.269511 1.69642,-0.70396l-0.00113359 -0.000850193c0.435582,-0.435582 0.705093,-1.03553 0.705093,-1.69642l-0.00226718 0 0 -0.000566795 0 -0.00113359 0.00226718 0c-0.000283398,-0.66145 -0.269228,-1.26112 -0.703676,-1.69642l-0.00113359 0.00113359c-0.435299,-0.435582 -1.03553,-0.705093 -1.69613,-0.705093zm-77.7893 15.9369l7.74186 0 0 -0.00226718c0.16352,0 0.340077,-0.107974 0.456837,-0.264693 0.0223884,-0.0300401 0.0419429,-0.0612139 0.0578131,-0.0932378 0.0153035,-0.0308903 0.0272062,-0.0609305 0.0348579,-0.0889869l0.00141699 -0.00170039 -0.00113359 -0.000283398 7.49643 -27.977c0.00765174,-0.0280564 0.0113359,-0.0552625 0.0113359,-0.0804849 0,-0.0280564 -0.00368417,-0.047044 -0.0102023,-0.0555459 -0.00255058,-0.00368417 -0.0116193,-0.00765174 -0.0269228,-0.0119027 -0.0133197,-0.00340077 -0.0320239,-0.00538456 -0.0552625,-0.00538456l0 -0.00226718 -7.74186 0 0 0.00226718c-0.16352,0 -0.339794,0.108258 -0.456837,0.264977 -0.0223884,0.0297568 -0.0419429,0.0612139 -0.0578131,0.0932378 -0.0153035,0.0306069 -0.0272062,0.0606471 -0.0348579,0.0889869l-0.00141699 0.00141699 0.000850193 0.000283398 -7.49643 27.9773c-0.00736834,0.0280564 -0.0110525,0.0552625 -0.0110525,0.0804849 0,0.027773 0.00368417,0.0467606 0.0102023,0.0555459 0.00255058,0.00340077 0.0116193,0.00736834 0.0266394,0.0116193 0.0136031,0.00340077 0.0320239,0.00538456 0.0555459,0.00538456l0 0.00226718zm11.9506 -0.00226718l24.576 0c0.16352,0 0.339794,-0.107974 0.456837,-0.264693 0.022105,-0.0297568 0.0416595,-0.0612139 0.0575297,-0.0932378 0.0153035,-0.0308903 0.0272062,-0.0609305 0.0348579,-0.0889869l0.00170039 -0.00170039 -0.00113359 -0.000283398 1.75622 -6.55442c0.00765174,-0.0280564 0.0113359,-0.0552625 0.0113359,-0.0804849 0,-0.0280564 -0.00368417,-0.047044 -0.0102023,-0.0558293 -0.00283398,-0.00340077 -0.0119027,-0.00736834 -0.0269228,-0.0116193 -0.0136031,-0.00340077 -0.0320239,-0.00538456 -0.0552625,-0.00538456 -0.00878533,0 -0.00906872,-0.000566795 -0.00765174,-0.00113359l-0.0320239 0.00226718 -0.0359915 0.00226718 -11.9308 0 -1.53176 0 1.15768 -1.00606 16.4949 -14.3348c0.0756672,-0.0657483 0.132063,-0.140565 0.167488,-0.215949 0.00170039,-0.00368417 0.00708494,-0.0172873 0.0158703,-0.0413761 0.00453436,-0.0124695 0.00850193,-0.0252224 0.0119027,-0.0374085l0.00170039 -0.00170039 0 0 1.50994 -5.63536c0.00736834,-0.0280564 0.0110525,-0.0552625 0.0110525,-0.0807683 0,-0.027773 -0.00368417,-0.0467606 -0.00991892,-0.0552625 -0.00283398,-0.00368417 -0.0119027,-0.00765174 -0.0269228,-0.0119027 -0.0133197,-0.00340077 -0.0320239,-0.00538456 -0.0552625,-0.00538456l-24.0996 0c-0.163804,0 -0.340077,0.108258 -0.456837,0.264977 -0.022105,0.0297568 -0.0419429,0.0612139 -0.0578131,0.0932378 -0.0153035,0.0306069 -0.0272062,0.0606471 -0.0348579,0.0889869l-0.00141699 0.00141699 0.00113359 0.000283398 -1.7565 6.55499c-0.00736834,0.027773 -0.0110525,0.0549791 -0.0110525,0.0804849 0,0.027773 0.00368417,0.0467606 0.0102023,0.0555459 0.00255058,0.00340077 0.0116193,0.00736834 0.0266394,0.0116193 0.0136031,0.00340077 0.0320239,0.00538456 0.0552625,0.00538456l11.5261 0 1.53176 0 -1.1574 1.00606 -16.4909 14.3317c-0.0756672,0.0654649 -0.132063,0.140282 -0.167488,0.215666l0 0.00226718c-0.00425096,0.00906872 -0.00991892,0.0226718 -0.0158703,0.0391089 -0.00453436,0.0124695 -0.00878533,0.0252224 -0.0119027,0.0374085l-0.00198378 0.00170039 0.000283398 0 -1.50994 5.63536c-0.00765174,0.0280564 -0.0113359,0.0552625 -0.0113359,0.0804849 0,0.027773 0.00368417,0.0467606 0.0102023,0.0555459 0.00255058,0.00340077 0.0116193,0.00736834 0.0266394,0.0116193 0.0136031,0.00340077 0.0320239,0.00538456 0.0555459,0.00538456zm28.5858 0l22.3555 0c0.16352,0 0.339794,-0.107974 0.456554,-0.264693 0.0223884,-0.0300401 0.0422262,-0.0612139 0.0580965,-0.0932378 0.0150201,-0.0308903 0.0269228,-0.0609305 0.0345745,-0.0889869l0.00170039 -0.00170039 -0.00113359 -0.000283398 1.76698 -6.59438c0.00736834,-0.0280564 0.0110525,-0.0552625 0.0110525,-0.0804849 0,-0.0280564 -0.00368417,-0.047044 -0.0102023,-0.0555459 -0.00255058,-0.00368417 -0.0116193,-0.00793513 -0.0266394,-0.0119027 -0.0136031,-0.00340077 -0.0320239,-0.00538456 -0.0552625,-0.00538456l-13.8635 0 -0.746753 0 0.193277 -0.72153 0.720113 -2.68718 0.113926 -0.425663 0.43955 0 12.4712 0c0.163804,0 0.340077,-0.108258 0.456837,-0.264693 0.0223884,-0.0297568 0.0419429,-0.0612139 0.0578131,-0.0932378 0.0153035,-0.0308903 0.0272062,-0.0609305 0.0348579,-0.0889869l0.00141699 -0.00170039 -0.00113359 -0.000283398 1.63861 -6.11515c0.00736834,-0.027773 0.0110525,-0.0549791 0.0110525,-0.0802015 0,-0.0280564 -0.00368417,-0.047044 -0.0102023,-0.0558293 -0.00255058,-0.00340077 -0.0116193,-0.00765174 -0.0266394,-0.0116193 -0.0136031,-0.00368417 -0.0320239,-0.00566795 -0.0552625,-0.00566795l-12.4715 0 -0.746753 0 0.193277 -0.721247 0.667401 -2.4905 0.113926 -0.425663 0.43955 0 13.861 0c0.162103,0 0.337243,-0.107408 0.453153,-0.262993 0.022105,-0.0294734 0.0416595,-0.0606471 0.0575297,-0.092671 0.0150201,-0.0306069 0.0269228,-0.0603637 0.0342911,-0.0881367l0.00226718 -0.00226718 0.000566795 -0.00198378 0.10089 -0.370684 1.66723 -6.22143c0.00736834,-0.0280564 0.0110525,-0.0552625 0.0110525,-0.0804849 0,-0.0280564 -0.00368417,-0.047044 -0.0102023,-0.0555459 -0.00255058,-0.00368417 -0.0116193,-0.00765174 -0.0266394,-0.0119027 -0.0136031,-0.00340077 -0.0320239,-0.00538456 -0.0552625,-0.00538456l-22.3527 0c-0.163804,0 -0.340077,0.108258 -0.45712,0.264977 -0.022105,0.0297568 -0.0416595,0.0612139 -0.0575297,0.0932378 -0.0153035,0.0306069 -0.0272062,0.0606471 -0.0348579,0.0889869l-0.00170039 0.00141699 0.00113359 0.000283398 -7.49643 27.9773c-0.00736834,0.0280564 -0.0110525,0.0549791 -0.0110525,0.0804849 0,0.027773 0.00368417,0.0467606 0.00991892,0.0555459 0.00283398,0.00340077 0.0119027,0.00736834 0.0269228,0.0116193 0.0136031,0.00340077 0.0320239,0.00538456 0.0552625,0.00538456zm18.1049 -35.5409l7.62283 0c0.163804,0 0.340077,-0.108258 0.456837,-0.264693 0.0223884,-0.0300401 0.0419429,-0.0614973 0.0578131,-0.0935212 0.0153035,-0.0306069 0.0272062,-0.0606471 0.0348579,-0.0889869l0.00170039 -0.00141699 -0.00113359 -0.000283398 3.4311 -12.8056 0.387971 -1.4476 0.67647 1.33792 6.74486 13.3418c0.00255058,0.00538456 0.0130363,0.0104857 0.027773,0.0144533l-0.000283398 0.000566795c0.00481776,0.00113359 0.0130363,0.00226718 0.0240888,0.00340077 0.0150201,0.00170039 0.0260726,0.00311737 0.0334409,0.00311737l0 0 0.0150201 -0.000283398 0.0110525 -0.00226718 6.72021 0c0.162103,0 0.337243,-0.107408 0.453153,-0.26271 0.022105,-0.0297568 0.0413761,-0.0609305 0.0572463,-0.092671 0.0153035,-0.0306069 0.0272062,-0.0603637 0.0345745,-0.0884201l0.00226718 -0.00226718 0.000566795 -0.00170039 0.101173 -0.370968 7.39639 -27.6041c0.00736834,-0.0280564 0.0110525,-0.0549791 0.0110525,-0.0804849 0,-0.027773 -0.00368417,-0.0467606 -0.0102023,-0.0555459 -0.00255058,-0.00340077 -0.0116193,-0.00765174 -0.0269228,-0.0116193 -0.0136031,-0.00368417 -0.0320239,-0.00566795 -0.0549791,-0.00566795l-7.62283 0c-0.163804,0 -0.340077,0.108258 -0.456837,0.264977 -0.0223884,0.0300401 -0.0419429,0.0612139 -0.0578131,0.0932378 -0.0153035,0.0308903 -0.0272062,0.0609305 -0.0348579,0.0889869l-0.00170039 0.00170039 0.00113359 0.000283398 -3.27976 12.2411 -0.388255 1.44816 -0.676187 -1.33849 -6.45636 -12.7773c-0.00340077,-0.00708494 -0.0170039,-0.0133197 -0.0359915,-0.0175707 -0.0113359,-0.00226718 -0.0212548,-0.00396757 -0.0294734,-0.00453436 -0.0116193,-0.000566795 -0.0240888,-0.000566795 -0.0371251,0.000283398l0 0 -0.00623475 0.000566795 -0.042793 0.00198378 -7.11952 0c-0.162387,0 -0.337243,0.107691 -0.453436,0.262993 -0.0218216,0.0294734 -0.0413761,0.0606471 -0.0572463,0.092671 -0.0153035,0.0306069 -0.0269228,0.0603637 -0.0345745,0.0881367l-0.00226718 0.00226718 -0.000283398 0.00198378 -0.10174 0.372951 -7.39611 27.6021c-0.00736834,0.027773 -0.0110525,0.0549791 -0.0110525,0.0804849 0,0.027773 0.00368417,0.0467606 0.0102023,0.0552625 0.00255058,0.00340077 0.0116193,0.00765174 0.0266394,0.0116193 0.0136031,0.00368417 0.0320239,0.00566795 0.0555459,0.00566795zm-17.5913 0.00226718l0.00283398 0 0.00141699 0c1.71002,0 3.34438,-0.180524 4.88266,-0.552059 0.440117,-0.105991 0.879383,-0.230402 1.31695,-0.373235 0.422546,-0.138015 0.843391,-0.295017 1.26225,-0.471007 1.11885,-0.470157 2.17054,-1.06189 3.14401,-1.77945 2.11386,-1.5584 3.85336,-3.69919 5.11759,-6.47195 0.243722,-0.534488 0.472424,-1.10072 0.684972,-1.69897 0.210564,-0.591167 0.402708,-1.20897 0.575297,-1.85314l0.00226718 -0.00226718 0.000283398 -0.00170039 0.101173 -0.370401 3.98429 -14.8693c0.00680154,-0.0255058 0.00991892,-0.0501614 0.00991892,-0.0731166l0.00226718 0c0,-0.0212548 -0.00368417,-0.0368417 -0.0102023,-0.0453436 -0.00368417,-0.00481776 -0.0133197,-0.00963552 -0.0286232,-0.0138865 -0.0144533,-0.00368417 -0.0342911,-0.00595135 -0.0586633,-0.00595135l-7.82149 0c-0.165221,0 -0.341211,0.105707 -0.456554,0.258459 -0.0252224,0.0334409 -0.0447768,0.0631977 -0.0572463,0.0881367 -0.0116193,0.023522 -0.0223884,0.0524286 -0.0314571,0.0855861l-0.00141699 0.00141699 0.000850193 0.000283398 -3.95368 14.7554 0.00368417 0 -0.193561 0.72153c-0.346879,1.29428 -0.861812,2.33548 -1.50739,3.13381 -0.128096,0.158419 -0.262143,0.308053 -0.401291,0.448618 -0.137448,0.138865 -0.281414,0.269511 -0.431048,0.391656l-0.00283398 0.00198378c-0.434732,0.35453 -0.917358,0.632544 -1.43909,0.835173 -0.149067,0.0578131 -0.303802,0.110525 -0.463922,0.157286 -0.157569,0.0459104 -0.317122,0.0855861 -0.478659,0.118744 -0.302102,0.0620641 -0.613839,0.102307 -0.934645,0.121294l-0.00425096 0.0150201 -0.433032 0c-0.0595135,0 -0.118177,-0.000850193 -0.176273,-0.00226718l-0.576431 0 0.0113359 -0.0399591c-0.728899,-0.0870031 -1.34727,-0.309187 -1.83528,-0.669952 -0.132913,-0.098339 -0.255058,-0.20603 -0.365583,-0.322223 -0.113359,-0.11931 -0.214532,-0.246273 -0.302952,-0.380603l-0.000566795 0.000566795 -0.000566795 -0.00113359 -0.00226718 -0.00453436c-0.455137,-0.694041 -0.639062,-1.63917 -0.504731,-2.84276 0.0246556,-0.223034 0.0606471,-0.454853 0.107124,-0.694891 0.047044,-0.242588 0.104574,-0.491695 0.172873,-0.746753l0.00255058 -0.0102023 0.114209 -0.425663 0.00311737 0 3.9806 -14.8557c0.00680154,-0.0255058 0.0102023,-0.0501614 0.0102023,-0.0731166l0.00226718 0c0,-0.0212548 -0.00368417,-0.0368417 -0.0102023,-0.0453436 -0.00368417,-0.00481776 -0.0136031,-0.00963552 -0.0286232,-0.0138865 -0.0144533,-0.00368417 -0.0340077,-0.00595135 -0.0586633,-0.00595135l-7.82121 0c-0.165221,0 -0.341494,0.105707 -0.456837,0.258459 -0.0229552,0.0303235 -0.0422262,0.0609305 -0.0569629,0.0904038l-0.000850193 -0.000566795c-0.0113359,0.023522 -0.022105,0.051295 -0.0308903,0.0838857l-0.00141699 0.00141699 0.00113359 0.000283398 -3.94319 14.716 0.00340077 0 -0.193561 0.72153c-0.846792,3.16102 -0.871164,5.70253 -0.178257,7.65599 0.132347,0.373235 0.289632,0.723231 0.470723,1.04885 0.181091,0.32534 0.388255,0.631977 0.620641,0.919909l0.00425096 0.00255058c0.606188,0.749303 1.37561,1.35691 2.29524,1.8265 0.301252,0.153885 0.620641,0.293883 0.95675,0.419712 0.333276,0.124978 0.687806,0.237204 1.06274,0.33611 1.27161,0.335543 2.72515,0.500764 4.3425,0.500764zm-41.0499 -0.00226718l7.70218 0c0.16352,0 0.340077,-0.108258 0.456837,-0.264693 0.0223884,-0.0300401 0.0419429,-0.0614973 0.0578131,-0.0935212 0.0153035,-0.0306069 0.0272062,-0.0606471 0.0348579,-0.0889869l0.00141699 -0.00141699 -0.00113359 -0.000283398 2.03593 -7.59846 0.114209 -0.425663 0.439266 0 2.04273 0 0.389955 0 0.143399 0.3653 3.1732 8.07995 0 0.00226718c0.00283398,0.00793513 0.0150201,0.0144533 0.0314571,0.0184208 0.0155869,0.00396757 0.026356,0.00623475 0.0311737,0.00680154 0.00821853,0.000566795 0.0212548,0.000566795 0.0376919,0l0 -0.000283398 0.00765174 -0.000566795 0.0357081 -0.00226718 8.8352 0c0.162103,0 0.33696,-0.107408 0.453153,-0.26271 0.022105,-0.0297568 0.0413761,-0.0609305 0.0572463,-0.092671 0.0153035,-0.0306069 0.0269228,-0.0603637 0.0345745,-0.0884201l0.00141699 -0.00141699 -0.000850193 -0.000283398c0.0113359,-0.0433598 0.0147367,-0.0793513 0.0107691,-0.106841l-0.000283398 0.000283398 -0.00396757 -0.0127529 0.000566795 0c-0.000566795,-0.000850193 -0.00170039,-0.00283398 -0.00311737,-0.00680154l0.00141699 -0.000566795 -0.184775 -0.451169 0.000566795 -0.000283398 -3.48466 -8.45942 -0.208297 -0.505581 0.497363 -0.231536c0.106558,-0.0493112 0.20518,-0.0966386 0.296434,-0.141699 0.099756,-0.0487444 0.198945,-0.0991892 0.297851,-0.150201 0.378619,-0.195828 0.747036,-0.406392 1.10327,-0.631127 0.0328741,-0.020688 0.0994726,-0.0640479 0.20688,-0.134614l0.20688 -0.135464 0.00226718 -0.00170039c1.80553,-1.22768 3.29195,-2.84021 4.30453,-4.84752 0.194411,-0.385704 0.373235,-0.79153 0.535338,-1.21719 0.160686,-0.421979 0.302102,-0.858411 0.422829,-1.30901l0.00141699 -0.00170039 -0.000850193 -0.000283398 0.0212548 -0.0796347 0.0841691 -0.314005c0.147367,-0.600236 0.246839,-1.16987 0.299835,-1.7086 0.0612139,-0.624608 0.0603637,-1.21436 -0.00170039,-1.76982 -0.0620641,-0.554042 -0.184492,-1.06728 -0.36615,-1.5397 -0.179107,-0.465906 -0.421412,-0.902338 -0.725215,-1.30873l-0.220767 -0.2953c-0.0773676,-0.0960718 -0.157569,-0.189026 -0.240888,-0.279147l-0.00113359 0.00113359c-0.0365583,-0.0393923 -0.067732,-0.0725498 -0.0923876,-0.0977722 -0.0306069,-0.0317405 -0.0623475,-0.0634811 -0.0949382,-0.095505l-0.000850193 -0.000850193c-0.173723,-0.170322 -0.361049,-0.332709 -0.562261,-0.486027 -0.0280564,-0.0212548 -0.0674486,-0.0504448 -0.118177,-0.0872865 -0.0549791,-0.0396757 -0.0932378,-0.0668818 -0.113926,-0.0816185l-0.000850193 0.00141699 -0.000850193 -0.000283398 -0.00651815 -0.00680154c-0.626592,-0.431615 -1.37986,-0.785578 -2.26775,-1.05282 -0.182508,-0.0549791 -0.363032,-0.10429 -0.540156,-0.148217 -1.15201,-0.284248 -2.50042,-0.434449 -4.05995,-0.434449l0 0.00198378 -0.00255058 0 -0.741085 0 0.000850193 -0.00340077 -12.4003 0c-0.16352,0 -0.339794,0.108258 -0.456837,0.264977 -0.0223884,0.0297568 -0.0419429,0.0612139 -0.0578131,0.0932378 -0.0153035,0.0308903 -0.0272062,0.0609305 -0.0348579,0.0889869l-0.00141699 0.00170039 0.000850193 0.000283398 -7.49643 27.9773c-0.00736834,0.027773 -0.0110525,0.0549791 -0.0110525,0.0804849 0,0.027773 0.00368417,0.0467606 0.0102023,0.0552625 0.00255058,0.00340077 0.0116193,0.00765174 0.0266394,0.0116193 0.0136031,0.00368417 0.0320239,0.00566795 0.0555459,0.00566795zm12.3848 -15.872l1.33027 -4.96484 0.113926 -0.425663 0.43955 0 3.73433 0 0.000566795 -0.00141699 0.44125 0.000283398c0.875132,0 1.59723,0.133764 2.13909,0.39874 0.119877,0.0586633 0.227285,0.120727 0.321656,0.185342 0.102307,0.0699992 0.197812,0.147934 0.285665,0.232953l0.00651815 0.00453436 0.00113359 0.00113359 -0.00113359 0.00113359c0.762623,0.747036 0.648414,1.93816 0.284815,2.84673 -0.179391,0.453153 -0.43955,0.85246 -0.769991,1.18857 -0.0878533,0.0892703 -0.17599,0.170605 -0.264127,0.243439 -0.0861529,0.0714162 -0.183075,0.143399 -0.290199,0.215099l0 0.00226718 -0.00141699 0.000850193 -0.00113359 -0.00141699c-0.2219,0.148217 -0.462505,0.276596 -0.71983,0.383437 -0.0929544,0.0385421 -0.196395,0.0770842 -0.30947,0.115059 -0.109391,0.0365583 -0.217366,0.069149 -0.323073,0.096922 -0.493962,0.130363 -1.04659,0.199512 -1.64994,0.199512l-0.746469 0.000283398 0.000566795 -0.00141699 -3.46907 0 -0.746753 0 0.193277 -0.72153z"/>
    <polygon id="_40158672" class="fil1" points="60.4331,76.843 60.4326,76.8416 60.4326,76.843 "/>
    <path id="_40120336" class="fil1" d="M106.011 69.2255l-0.298701 1.11545 -0.813918 -3.03689 0.298985 -1.11545 0.813635 3.03689zm-0.74817 2.79203l-0.298985 1.11574 -0.813635 -3.03689 0.298985 -1.11574 0.813635 3.03689zm-0.74817 2.79288l-0.298985 1.11545 -0.813635 -3.03689 0.298701 -1.11545 0.813918 3.03689zm-0.74817 2.79203l-0.298985 1.11545 -0.813635 -3.03661 0.298701 -1.11574 0.813918 3.03689zm-0.833756 2.47349c-0.145383,0.144533 -0.325057,0.255058 -0.514367,0.311737l-0.633677 -2.36467c0.0595135,-0.0600803 0.115059,-0.123561 0.165221,-0.190727 0.0626309,-0.0841691 0.11846,-0.174006 0.165504,-0.268094 0.0337243,-0.0680154 0.0626309,-0.138865 0.0872865,-0.212548l0.730032 2.7243zm-1.40168 0.354247l-0.597686 0 -0.501614 -1.87156 0.142549 0c0.147367,0 0.29445,-0.023522 0.437566,-0.066315l0.519184 1.93787zm-1.49634 0l-0.597969 0 -0.50133 -1.87156 0.597686 0 0.501614 1.87156zm-1.49634 0l-0.597969 0 -0.501614 -1.87156 0.597969 0 0.501614 1.87156zm-1.49662 0l-0.597969 0 -0.50133 -1.87156 0.597686 0 0.501614 1.87156zm-1.49662 0l-0.597969 0 -0.50133 -1.87156 0.597969 0 0.50133 1.87156zm-1.55982 -0.237487c-0.100606,-0.126962 -0.149351,-0.296717 -0.130646,-0.487444l0.130646 0.487444zm33.9816 -29.4892l0.0175707 0 0.805133 3.0043 -0.298985 1.11545 -0.813635 -3.03689 0.289916 -1.08286zm0.920476 0.0161537c0.379469,0.0782177 0.586917,0.432748 0.472707,0.858695l-0.121294 0.452586 -0.351413 -1.31128zm-0.846225 5.78046l-0.298701 1.11574 -0.813918 -3.03689 0.298985 -1.11545 0.813635 3.03661zm-0.74817 2.7926l-0.298985 1.11545 -0.813635 -3.03689 0.298985 -1.11545 0.813635 3.03689zm-0.74817 2.79232l-0.298985 1.11574 -0.813635 -3.03689 0.298985 -1.11545 0.813635 3.03661zm-0.74817 2.7926l-0.298985 1.11545 -0.813635 -3.03689 0.298985 -1.11545 0.813635 3.03689zm-0.74817 2.79232l-0.298985 1.11574 -0.813635 -3.03689 0.298701 -1.11574 0.813918 3.03689zm-0.748453 2.79232l-0.298701 1.11574 -0.813918 -3.03689 0.298985 -1.11545 0.813635 3.03661zm-0.74817 2.7926l-0.298985 1.11545 -0.813635 -3.03661 0.298985 -1.11574 0.813635 3.03689zm-0.74817 2.79232l-0.298985 1.11574 -0.813635 -3.03689 0.298985 -1.11545 0.813635 3.03661zm-0.74817 2.7926l-0.19186 0.715862 -0.00340077 0c-0.027773,0.104007 -0.0731166,0.204046 -0.131213,0.296717l-0.786145 -2.93373 0.298701 -1.11574 0.813918 3.03689zm-1.07833 1.56124c-0.0714162,0.0167205 -0.143683,0.0257892 -0.215949,0.0257892l-0.374935 0 -0.540439 -2.01751c0.185059,-0.0836023 0.357931,-0.199512 0.506998,-0.339227l0.624325 2.33095zm-1.48954 0.0257892l-0.597686 0 -0.501614 -1.87156 0.597969 0 0.50133 1.87156zm-1.49634 0l-0.597969 0 -0.501614 -1.87156 0.597969 0 0.501614 1.87156zm-1.49634 0l-0.597969 0 -0.501614 -1.87156 0.597969 0 0.501614 1.87156zm-1.49662 0l-0.597969 0 -0.50133 -1.87156 0.597686 0 0.501614 1.87156zm-1.59411 -0.364166l-0.761773 -1.50739 0.357931 0 0.403842 1.50739zm-59.4713 -20.8949l-0.597969 0 -0.50133 -1.87156 0.202346 0c0.141415,0.00538456 0.276029,0.0153035 0.403275,0.0294734l0.493679 1.84208zm-1.49662 0l-0.597969 0 -0.50133 -1.87156 0.597686 0 0.501614 1.87156zm-1.49634 0l-0.597969 0 -0.50133 -1.87156 0.597686 0 0.501614 1.87156zm-1.14634 1.30731l-0.171172 0.638778 -0.255341 0 -0.686106 -2.55993 0.298985 -1.11574 0.813635 3.03689zm-1.32517 0.638778l-0.473274 0 0.236637 -0.88335 0.236637 0.88335zm5.93746 -3.53397c0.0549791,0.027773 0.110242,0.0606471 0.164371,0.0974888 0.0481776,0.0331575 0.0906872,0.0674486 0.127529,0.102307l-0.00113359 0.000850193 0.00113359 0.00113359 0.00680154 0.00453436c0.164371,0.159836 0.244572,0.399874 0.229552,0.720113 -0.00368417,0.0736834 -0.0121861,0.152468 -0.0260726,0.23607l-0.00821853 0.0481776 -0.0447768 0.187326 -0.0325907 0.121294 -0.000283398 0.00141699 -0.00425096 0.0164371 -0.41206 -1.53715zm46.3324 50.0475l0.264693 0c0.136598,0 0.257042,0.0314571 0.356798,0.0878533l0.244289 0.911974 -0.298985 1.11545 -0.566795 -2.11528zm0.11761 3.79243l-0.298985 1.11574 -0.813635 -3.03689 0.298701 -1.11574 0.813918 3.03689zm-0.74817 2.79232l-0.237204 0.884484c-0.0175707,0.0657483 -0.0422262,0.129796 -0.0722664,0.191577l-0.803432 -2.9975 0.298985 -1.11545 0.813918 3.03689zm-1.03865 1.70945c-0.0989058,0.0320239 -0.200646,0.0495946 -0.301818,0.0495946l-0.282547 0 -0.551208 -2.05633c0.184492,-0.0946548 0.354814,-0.22105 0.498496,-0.370684l0.637078 2.37742zm-1.48302 0.0495946l-0.597686 0 -0.501614 -1.87156 0.597686 0 0.501614 1.87156zm-1.49662 0l-0.597686 0 -0.501614 -1.87156 0.597969 0 0.50133 1.87156zm-1.49634 0l-0.597686 0 -0.501614 -1.87156 0.597969 0 0.50133 1.87156zm-1.49662 0l-0.597686 0 -0.501614 -1.87156 0.597969 0 0.50133 1.87156zm-1.49634 0l-0.597686 0 -0.501614 -1.87156 0.597969 0 0.50133 1.87156zm-1.49662 0l-0.597686 0 -0.50133 -1.87156 0.597686 0 0.50133 1.87156zm-1.49634 0l-0.597686 0 -0.50133 -1.87156 0.597686 0 0.50133 1.87156zm-1.49634 0l-0.597969 0 -0.50133 -1.87156 0.597686 0 0.501614 1.87156zm-1.49634 0l-0.597969 0 -0.50133 -1.87156 0.597686 0 0.501614 1.87156zm-1.49662 0l-0.597969 0 -0.50133 -1.87156 0.597686 0 0.501614 1.87156zm-1.49634 0l-0.597969 0 -0.50133 -1.87156 0.597686 0 0.501614 1.87156zm-1.49662 0l-0.597969 0 -0.50133 -1.87156 0.597686 0 0.501614 1.87156zm-1.49662 0l-0.597686 0 -0.501614 -1.87156 0.597969 0 0.50133 1.87156zm-1.49634 0l-0.597686 0 -0.501614 -1.87156 0.597686 0 0.501614 1.87156zm-1.49634 0l-0.223601 0c-0.159836,0 -0.297851,-0.0436432 -0.406392,-0.11931l-0.215382 -0.803716 0.254208 -0.948532 0.0895537 0 0.501614 1.87156zm25.7648 -18.8955l0.0376919 0c0.479792,0 0.76404,0.391939 0.634527,0.874849l-0.218783 0.817035 -0.453436 -1.69188zm0.00396757 3.36903l-0.298701 1.11545 -0.813918 -3.03689 0.298985 -1.11545 0.813635 3.03689zm-0.74817 2.7926l-0.2219 0.828371c-0.0215382,0.0796347 -0.0529954,0.156435 -0.0923876,0.229835l-0.798331 -2.97964 0.298701 -1.11545 0.813918 3.03689zm-1.05112 1.66184c-0.0901204,0.0266394 -0.182225,0.0410927 -0.274046,0.0410927l-0.0272062 0c-0.099756,-0.0946548 -0.216232,-0.171739 -0.346595,-0.227568l-0.48631 -1.81573c0.184492,-0.0906872 0.355664,-0.213965 0.50133,-0.359915l0.632827 2.36212zm-1.57427 -0.290483l-0.597969 0 -0.412627 -1.53998 0.597969 0 0.412627 1.53998zm-1.49634 0l-0.597969 0 -0.412627 -1.53998 0.597969 0 0.412627 1.53998zm-1.49662 0l-0.597969 0 -0.412627 -1.53998 0.597969 0 0.412627 1.53998zm-1.49634 0l-0.597969 0 -0.412627 -1.53998 0.597969 0 0.412627 1.53998zm-1.49662 0l-0.597686 0 -0.41291 -1.53998 0.597969 0 0.412627 1.53998zm-1.49634 0l-0.597686 0 -0.41291 -1.53998 0.597969 0 0.412627 1.53998zm-1.49662 0l-0.597686 0 -0.412627 -1.53998 0.597686 0 0.412627 1.53998zm-1.49634 0l-0.597686 0 -0.412627 -1.53998 0.597686 0 0.412627 1.53998zm-1.49662 0l-0.597686 0 -0.0702826 -0.261859 0.298985 -1.11545 0.368984 1.37731zm18.9125 -18.3639l0.110525 0 0.758372 2.83058 -0.298985 1.11545 -0.813635 -3.03689 0.243722 -0.90914zm1.0208 0.0444934c0.314288,0.115626 0.475825,0.443801 0.372101,0.830072l-0.074817 0.279147 -0.297284 -1.10922zm-0.900071 5.57868l-0.298985 1.11545 -0.813635 -3.03689 0.298701 -1.11545 0.813918 3.03689zm-0.85161 2.40661c-0.150768,0.136598 -0.332709,0.237204 -0.522018,0.283114l-0.625459 -2.33491c0.076234,-0.071983 0.146233,-0.150201 0.208581,-0.233236 0.0351413,-0.0473274 0.0680154,-0.0963552 0.098339,-0.147083l0.0714162 0 0.0589467 -0.219066 0.710194 2.65118zm-1.41302 0.310887l-0.597969 0 -0.501614 -1.87156 0.201779 0c0.128379,0 0.256758,-0.0178541 0.382587,-0.0510116l0.515217 1.92257zm-1.49662 0l-0.425663 0c-0.0104857,-0.0153035 -0.020688,-0.0303235 -0.0317405,-0.0450602 -0.0609305,-0.0816185 -0.13178,-0.155019 -0.210848,-0.217933l-0.431048 -1.60856 0.597969 0 0.50133 1.87156zm-1.63804 -0.528253l-0.597969 0 -0.359632 -1.3433 0.597686 0 0.359915 1.3433zm-1.49662 0l-0.597686 0 -0.359915 -1.3433 0.597686 0 0.359915 1.3433zm-1.49634 0l-0.597686 0 -0.359915 -1.3433 0.597686 0 0.359915 1.3433zm-1.49662 0l-0.597686 0 -0.359915 -1.3433 0.597686 0 0.359915 1.3433zm-1.49634 0l-0.597686 0 -0.359915 -1.3433 0.597686 0 0.359915 1.3433zm-1.49662 0l-0.597686 0 -0.359915 -1.3433 0.597969 0 0.359632 1.3433zm-1.49634 0l-0.597686 0 -0.359915 -1.3433 0.597969 0 0.359632 1.3433zm-1.49634 0l-0.597969 0 -0.235787 -0.87995 0.124128 -0.463355 0.349713 0 0.359915 1.3433zm-16.3501 13.6136l0.543557 0 0.271212 1.01173 -0.298985 1.11545 -0.542706 -2.02629 0.0269228 -0.10089zm0.0665984 3.80405l-0.275746 1.02873c-0.00821853,0.0308903 -0.0155869,0.0614973 -0.0218216,0.0918208l-0.544407 -2.03139 0.298985 -1.11545 0.54299 2.02629zm-0.484327 3.77712c-0.0952216,0.213115 -0.259876,0.399307 -0.45627,0.52882l-0.683838 -2.55285c0.0240888,-0.0399591 0.0467606,-0.0807683 0.067732,-0.122711 0.0473274,-0.095505 0.0864363,-0.197245 0.115343,-0.304086l-0.00113359 0 0.00170039 -0.00170039 0.149634 -0.558577 0.806833 3.0111zm-1.30363 0.719263l-0.597969 0 -0.505581 -1.88658c0.189876,-0.0272062 0.376069,-0.0904038 0.549225,-0.181941l0.554326 2.06852zm-1.49662 0l-0.597969 0 -0.50133 -1.87156 0.597686 0 0.501614 1.87156zm-1.49634 0l-0.597969 0 -0.50133 -1.87156 0.597686 0 0.501614 1.87156zm-1.49662 0l-0.597969 0 -0.50133 -1.87156 0.597686 0 0.501614 1.87156zm-1.49634 0l-0.597969 0 -0.50133 -1.87156 0.597686 0 0.501614 1.87156zm-1.49662 0l-0.597686 0 -0.501614 -1.87156 0.597969 0 0.50133 1.87156zm-1.49634 0l-0.597686 0 -0.501614 -1.87156 0.597969 0 0.50133 1.87156zm-1.49662 0l-0.597686 0 -0.501614 -1.87156 0.597969 0 0.50133 1.87156zm-1.49634 0l-0.597686 0 -0.501614 -1.87156 0.597969 0 0.50133 1.87156zm-1.49662 0l-0.597686 0 -0.501614 -1.87156 0.597969 0 0.50133 1.87156zm-1.49634 0l-0.597969 0 -0.50133 -1.87156 0.597686 0 0.501614 1.87156zm-1.49634 0l-0.597969 0 -0.501614 -1.87156 0.597969 0 0.501614 1.87156zm-1.49662 0l-0.597969 0 -0.50133 -1.87156 0.597686 0 0.501614 1.87156zm-1.49634 0l-0.597969 0 -0.50133 -1.87156 0.597686 0 0.501614 1.87156zm-1.49662 0l-0.597969 0 -0.50133 -1.87156 0.597969 0 0.50133 1.87156zm-1.49634 0l-0.597969 0 -0.50133 -1.87156 0.597686 0 0.501614 1.87156zm-1.49662 0l-0.376635 0c-0.0827521,0 -0.16012,-0.0116193 -0.230119,-0.0337243l-0.314855 -1.17468 0.17769 -0.66315 0.242588 0 0.50133 1.87156zm31.8417 -29.7264l0.323073 0c0.107124,0 0.20433,0.019271 0.289349,0.0549791l0.0116193 0.0430764 -0.298985 1.11545 -0.325057 -1.21351zm-0.124128 2.89066l-0.298985 1.11545 -0.54299 -2.02629 0.298985 -1.11574 0.54299 2.02658zm-0.74817 2.79203l-0.298985 1.11574 -0.578698 -2.15921 0.000566795 -0.000566795 0.0708494 0 0.114209 -0.425663 0.149067 -0.556593 0.54299 2.02629zm-0.918775 2.15751l-0.48461 0.421412 -0.662584 -2.47236 0.484893 -0.421412 0.6623 2.47236zm-1.21351 1.05481l-0.484893 0.421412 -0.662584 -2.47236 0.484893 -0.421412 0.662584 2.47236zm-1.21408 1.05481l-0.484893 0.421412 -0.6623 -2.47208 0.484893 -0.421412 0.6623 2.47208zm-1.21379 1.05509l-0.484893 0.421129 -0.6623 -2.47208 0.484893 -0.421412 0.6623 2.47236zm-1.21379 1.05481l-0.484893 0.421412 -0.6623 -2.47236 0.484893 -0.421412 0.6623 2.47236zm-1.21379 1.05481l-0.484893 0.421412 -0.6623 -2.47236 0.484893 -0.421412 0.6623 2.47236zm-1.21379 1.05481l-0.484893 0.421412 -0.6623 -2.47236 0.484893 -0.421412 0.6623 2.47236zm-1.21379 1.05481l-0.484893 0.421412 -0.6623 -2.47208 0.48461 -0.421412 0.662584 2.47208zm-1.21379 1.05481l-0.484893 0.421412 -0.6623 -2.47208 0.484893 -0.421412 0.6623 2.47208zm-1.21379 1.05509l-0.484893 0.421412 -0.662584 -2.47236 0.484893 -0.421412 0.662584 2.47236zm-1.21379 1.05452l-0.0212548 0.0187042 -0.571613 0 -0.554326 -2.06937 0.484893 -0.421412 0.6623 2.47208zm-1.49152 0.0187042l-0.597969 0 -0.271778 -1.01428 0.484893 -0.421412 0.384854 1.43569zm-1.49634 0l-0.540439 0 0.438133 -0.38117 0.102307 0.38117zm-2.80932 -10.1031l-0.495662 0 -0.501614 -1.87156 0.597969 0 0.482059 1.79957 -0.0827521 0.071983zm-1.39432 0l-0.597969 0 -0.501614 -1.87156 0.597969 0 0.501614 1.87156zm-1.49634 0l-0.597969 0 -0.501614 -1.87156 0.597969 0 0.501614 1.87156zm-1.49662 0l-0.597969 0 -0.50133 -1.87156 0.597686 0 0.501614 1.87156zm-1.49634 0l-0.391939 0c-0.0765174,0 -0.148217,-0.0102023 -0.213682,-0.0286232l-0.323923 -1.20841 0.170039 -0.634527 0.257892 0 0.501614 1.87156zm6.38268 -1.87156l0.597969 0 0.199512 0.744769 -0.484893 0.421412 -0.312588 -1.16618zm1.49662 0l0.157569 0 -0.127812 0.111092 -0.0297568 -0.111092zm-10.7022 -6.43199c0.462222,0.0153035 0.732299,0.401008 0.605621,0.873998l-0.185625 0.692907 -0.419995 -1.56691zm-0.0294734 3.24405l-0.298985 1.11545 -0.813635 -3.03689 0.298985 -1.11545 0.813635 3.03689zm-0.74817 2.7926l-0.298985 1.11545 -0.813635 -3.03689 0.298701 -1.11545 0.813918 3.03689zm-0.74817 2.79232l-0.298985 1.11545 -0.813918 -3.03689 0.298985 -1.11545 0.813918 3.03689zm-0.748453 2.7926l-0.298701 1.11545 -0.813918 -3.03689 0.298985 -1.11545 0.813635 3.03689zm-0.74817 2.79232l-0.298701 1.11545 -0.813918 -3.03689 0.298985 -1.11545 0.813635 3.03689zm-0.74817 2.7926l-0.298985 1.11545 -0.813635 -3.03689 0.298701 -1.11574 0.813918 3.03717zm-0.790963 2.63248c-0.111659,0.110242 -0.205747,0.231536 -0.281981,0.358215l-0.0714162 0 -0.0742502 0.277446 -0.642179 -2.39726 0.298701 -1.11545 0.771125 2.87705zm-0.876832 2.31252l-0.298985 1.11574 -0.642462 -2.39726 0.298985 -1.11574 0.642462 2.39726zm-0.74817 2.7926l-0.298985 1.11545 -0.642462 -2.39726 0.298985 -1.11545 0.642462 2.39726zm-0.576998 3.43195l-0.127246 0.475258c-0.0419429,0.156435 -0.122428,0.302952 -0.227852,0.430198l-0.757522 -2.82661 0.298985 -1.11574 0.813635 3.03689zm-1.13614 1.34472c-0.0314571,0.00340077 -0.0629143,0.00510116 -0.0946548,0.00510116l-0.501897 0 -0.527686 -1.97046c0.185909,-0.0685822 0.362182,-0.169755 0.518334,-0.295584l0.605904 2.26095zm-1.49521 0.00510116l-0.597686 0 -0.502181 -1.87383 0.597969 0 0.501897 1.87383zm-1.49634 0l-0.597686 0 -0.502181 -1.87383 0.597969 0 0.501897 1.87383zm-1.49634 0l-0.597969 0 -0.502181 -1.87383 0.597969 0 0.502181 1.87383zm-1.49662 0l-0.597686 0 -0.502181 -1.87383 0.597969 0 0.501897 1.87383zm-1.49634 0l-0.355664 0c-0.0921042,0 -0.177124,-0.0144533 -0.253357,-0.0413761l-0.302102 -1.12792 0.188743 -0.704527 0.2202 0 0.502181 1.87383zm79.4052 -16.3311l0.0274896 0.0246556 0.832339 3.10604c-0.0906872,0.282547 -0.2219,0.546674 -0.387405,0.785295l-0.740518 -2.76398c0.149917,-0.357931 0.243155,-0.745336 0.268094,-1.15201zm-0.23352 4.63554c-0.161253,0.116476 -0.334409,0.217083 -0.517484,0.299835l-0.628293 -2.34398c0.122428,-0.094088 0.238337,-0.195544 0.347162,-0.304086l0.00226718 0c0.0444934,-0.0447768 0.0878533,-0.0909706 0.13008,-0.138015l0.666268 2.48625zm-1.35266 0.536755c-0.126395,0.0164371 -0.255058,0.0252224 -0.385988,0.0252224 -0.0694324,0 -0.138581,-0.00283398 -0.20688,-0.00736834l-0.526553 -1.9648c0.189593,-0.045627 0.373235,-0.105991 0.549225,-0.180524l0.570196 2.12747zm-1.55359 -0.213398c-0.259025,-0.110808 -0.499063,-0.257325 -0.713879,-0.433032l-0.338377 -1.26282c0.199229,0.0374085 0.404408,0.0578131 0.613839,0.0603637l0.438416 1.63549zm-50.8687 -27.7174l0.127246 0.308903 0.695741 2.59649c-0.107124,0.198378 -0.274612,0.368134 -0.468456,0.48291l-0.67477 -2.51884c0.0399591,-0.0600803 0.0768008,-0.122995 0.108825,-0.187609 0.0476108,-0.0952216 0.0864363,-0.196678 0.115343,-0.303235l-0.00113359 -0.000283398 0.00141699 -0.00141699c0.0317405,-0.11846 0.0478942,-0.23522 0.049878,-0.348862l0.0459104 -0.0280564zm-0.502181 3.5453l-0.597969 0 -0.503314 -1.87921c0.190443,-0.019271 0.378619,-0.0756672 0.554609,-0.161537l0.546674 2.04075zm-1.49634 0l-0.597969 0 -0.50133 -1.87156 0.597686 0 0.501614 1.87156zm-1.49662 0l-0.597686 0 -0.501614 -1.87156 0.597969 0 0.50133 1.87156zm-1.49634 0l-0.597686 0 -0.501614 -1.87156 0.597969 0 0.50133 1.87156zm-1.49662 0l-0.597686 0 -0.501614 -1.87156 0.597969 0 0.50133 1.87156zm-1.49634 0l-0.597686 0 -0.501614 -1.87156 0.597969 0 0.50133 1.87156zm-1.53573 -0.146233c-0.0759506,-0.0626309 -0.136031,-0.143966 -0.174573,-0.243155l-0.582099 -1.48217 0.29445 0 0.462222 1.72532zm45.3496 -29.5771l0.458821 0c0.049878,0 0.0972054,0.00396757 0.142266,0.0119027l0.361899 1.35011 -0.298985 1.11574 -0.664001 -2.47775zm0.214815 4.15433l-0.298985 1.11545 -0.813635 -3.03689 0.298985 -1.11545 0.813635 3.03689zm-0.74817 2.79232l-0.298985 1.11574 -0.813635 -3.03689 0.298701 -1.11545 0.813918 3.03661zm-0.748453 2.7926l-0.298701 1.11545 -0.813918 -3.03689 0.298985 -1.11545 0.813635 3.03689zm-0.74817 2.79232l-0.298701 1.11574 -0.813918 -3.03689 0.298985 -1.11545 0.813635 3.03661zm-0.74817 2.7926l-0.20773 0.775093 -0.000566795 0.00226718 -0.00340077 0c-0.0294734,0.109675 -0.0595135,0.2185 -0.0901204,0.326757l-0.810801 -3.02555 0.298985 -1.11545 0.813635 3.03689zm-0.788979 2.64042c-0.111659,0.315138 -0.228135,0.623191 -0.349996,0.924726l-0.77651 -2.89831c0.0300401,-0.0819019 0.0600803,-0.163804 0.0892703,-0.246556 0.0853027,-0.239754 0.167488,-0.483193 0.246556,-0.730032l0.790679 2.95017zm-0.909706 2.1901c-0.126395,0.261576 -0.257325,0.517484 -0.392222,0.768008l-0.746186 -2.78523c0.0974888,-0.196961 0.19271,-0.396757 0.285381,-0.599953 0.0320239,-0.0702826 0.0634811,-0.140849 0.0949382,-0.211698l0.758089 2.82888zm-1.0072 1.82593c-0.138015,0.2202 -0.279713,0.435299 -0.424813,0.64558l-0.71983 -2.68604c0.141982,-0.223034 0.28028,-0.450886 0.414611,-0.683838l0.730032 2.7243zm-1.08428 1.53828c-0.14765,0.186192 -0.298134,0.368134 -0.451736,0.545824l-0.695741 -2.59706c0.150484,-0.189026 0.297851,-0.38287 0.4421,-0.580682l0.705377 2.63191zm-1.14776 1.30108c-0.155302,0.158136 -0.313154,0.312021 -0.473841,0.462222l-0.674203 -2.51572c0.157852,-0.16097 0.313154,-0.32534 0.465339,-0.493962l0.682705 2.54746zm-1.20132 1.10128c-0.162103,0.133764 -0.326757,0.263843 -0.493395,0.390239l-0.653515 -2.43892c0.164087,-0.136598 0.325907,-0.276596 0.485177,-0.420279l0.661733 2.46896zm-1.2478 0.928411c-0.168055,0.112225 -0.338093,0.22105 -0.510116,0.326474l-0.633961 -2.36552c0.168055,-0.114209 0.334409,-0.231819 0.49878,-0.353113l0.00368417 -0.00255058 0.641612 2.39471zm-1.28889 0.774526c-0.173439,0.0932378 -0.348579,0.183642 -0.525419,0.270361l-0.614689 -2.29467c0.17429,-0.0963552 0.346879,-0.195828 0.517767,-0.298418l0.622341 2.32273zm-1.32602 0.636511c-0.178257,0.0756672 -0.357648,0.1485 -0.539306,0.218216l-0.595985 -2.22467c0.178824,-0.0790679 0.356231,-0.16097 0.531937,-0.245989l0.603354 2.25244zm-1.35974 0.509832c-0.182508,0.0595135 -0.366717,0.116476 -0.552059,0.170605l-0.578131 -2.15751c0.183925,-0.0634811 0.365583,-0.129229 0.544974,-0.197245l0.585216 2.18415zm-1.39092 0.393073c-0.186759,0.0447768 -0.374935,0.0870031 -0.564245,0.126395l-0.560277 -2.09176c0.187893,-0.048461 0.373518,-0.0991892 0.556876,-0.152468l0.567645 2.11783zm-1.42039 0.284815c-0.190443,0.0308903 -0.382303,0.0592301 -0.575014,0.0850193l-0.54299 -2.02658c0.190443,-0.0342911 0.379753,-0.0714162 0.567929,-0.111092l0.550075 2.05265zm-1.44731 0.182791c-0.194127,0.0178541 -0.389105,0.0331575 -0.5855,0.0461938l-0.525986 -1.96253c0.194127,-0.0212548 0.386838,-0.0450602 0.578698,-0.0714162l0.532788 1.98775zm-1.47367 0.0864363c-0.197245,0.00538456 -0.395906,0.00821853 -0.595135,0.00878533l-0.508982 -1.89848c0.197245,-0.00906872 0.393639,-0.0201212 0.5889,-0.0340077l0.515217 1.9237zm-1.49776 -0.00623475c-0.204896,-0.00736834 -0.406959,-0.0175707 -0.606188,-0.0306069l-0.488294 -1.82225 0.366433 0 0.00283398 0 0.00141699 0 0.227285 0 0.496513 1.85285zm-1.52695 -0.112792c-0.210281,-0.0240888 -0.416595,-0.0515784 -0.619791,-0.0824687l-0.466473 -1.74006c0.200362,0.0170039 0.403558,0.0311737 0.609305,0.042793l0.476958 1.77974zm-1.56492 -0.256475c-0.217933,-0.0476108 -0.431331,-0.099756 -0.639912,-0.156435l-0.431048 -1.60856c0.204613,0.0357081 0.412627,0.0680154 0.624042,0.096922l0.446918 1.66808zm-1.62217 -0.46874c-0.230969,-0.0850193 -0.45457,-0.17684 -0.671652,-0.274896l-0.373801 -1.3946c0.131497,0.0393923 0.26441,0.0768008 0.398457,0.112225 0.0816185,0.0215382 0.16352,0.0422262 0.246273,0.0623475l0.400724 1.49492zm-1.72022 -0.834039c-0.259309,-0.162103 -0.505015,-0.336393 -0.737684,-0.522585l-0.256191 -0.956184c0.21935,0.106558 0.445501,0.20603 0.677887,0.298985l0.315988 1.17978zm-1.9767 -1.79277c-0.108825,-0.144533 -0.212548,-0.293033 -0.310604,-0.446351 0.0768008,0.0544123 0.154735,0.107691 0.233803,0.159836l0.0768008 0.286515zm11.8236 -26.2466l0.351413 0c0.0938046,0 0.180241,0.0147367 0.257608,0.0419429l0.299835 1.11942 -0.298701 1.11545 -0.610155 -2.27682zm0.160686 3.95396l-0.298985 1.11574 -0.813635 -3.03689 0.298985 -1.11574 0.813635 3.03689zm-0.74817 2.79232l-0.298985 1.11545 -0.813635 -3.03689 0.298985 -1.11545 0.813635 3.03689zm-0.74817 2.7926l-0.298985 1.11574 -0.813635 -3.03689 0.298701 -1.11574 0.813918 3.03689zm-0.748453 2.79232l-0.298701 1.11545 -0.813918 -3.03689 0.298985 -1.11545 0.813635 3.03689zm-0.74817 2.7926l-0.271778 1.01456 -0.000850193 0.00283398 -0.00340077 0 -0.0243722 0.0923876 -0.812218 -3.03094 0.298985 -1.11574 0.813635 3.03689zm-0.825537 2.50353c-0.0753838,-0.0563961 -0.146233,-0.119027 -0.211415,-0.187609 -0.0631977,-0.066315 -0.121861,-0.140849 -0.17599,-0.223317l-0.00226718 -0.00453436 -0.000566795 -0.000850193 -0.000566795 0c-0.307203,-0.471574 -0.425663,-1.16306 -0.32279,-2.08552 0.00396757,-0.0368417 0.00850193,-0.0742502 0.0133197,-0.111659l0.700276 2.61349zm-9.93025 -14.1254c0.100323,0.1468 0.193844,0.297284 0.280564,0.452019l0.547808 2.04415 -0.298985 1.11545 -0.436149 -1.62784c0.0320239,-0.548091 0.0201212,-1.07124 -0.0357081,-1.56946 -0.0155869,-0.139998 -0.0348579,-0.278013 -0.0575297,-0.414327zm0.0802015 5.28877l-0.298985 1.11545 -0.312021 -1.16391c0.019271,-0.0617807 0.0382587,-0.124128 0.0563961,-0.186759l0.00765174 0 0.114209 -0.425663c0.04421,-0.165788 0.0853027,-0.330442 0.123278,-0.493395l0.30947 1.15428zm-0.748453 2.7926l-0.298701 1.11545 -0.462505 -1.72561 0.00821853 -0.0158703c0.132063,-0.261576 0.255908,-0.52797 0.371534,-0.798331l0.381453 1.42436zm-0.746186 2.79969l-0.0110525 0.0425096 0.0107691 0c-0.0515784,0.217366 -0.0989058,0.431898 -0.142549,0.643879 -0.0660316,0.0884201 -0.132913,0.175423 -0.200929,0.261859l-0.707077 -2.639c0.14765,-0.208297 0.289632,-0.421412 0.426513,-0.639628l0.624325 2.33038zm-1.0276 1.7497c-0.152185,0.164937 -0.30862,0.325624 -0.46874,0.482343l-0.679304 -2.53613c0.156719,-0.169472 0.30947,-0.343195 0.457971,-0.520885l0.690073 2.57467zm-1.19084 1.14068c-0.160403,0.136031 -0.324207,0.268944 -0.491128,0.398174l-0.656066 -2.44912c0.164087,-0.140282 0.32449,-0.284248 0.482059,-0.431615l0.665134 2.48256zm-1.24355 0.943998c-0.167205,0.113642 -0.337243,0.223601 -0.509266,0.330442l-0.635378 -2.37147c0.169755,-0.117043 0.336676,-0.237487 0.501047,-0.360765l0.643596 2.40179zm-1.28663 0.782177c-0.0918208,0.0495946 -0.183642,0.0986224 -0.276313,0.1468 -0.0824687,0.0425096 -0.165504,0.0844525 -0.24854,0.125829l-0.615823 -2.29835c0.173723,-0.0972054 0.346595,-0.197245 0.517201,-0.300968l0.623475 2.32669zm-16.5799 10.7272l-0.597969 0 -0.501614 -1.87297c0.191577,-0.00765174 0.382587,-0.0541289 0.562544,-0.131213l0.537039 2.00419zm-1.49662 0l-0.597686 0 -0.501614 -1.87156 0.597969 0 0.50133 1.87156zm-1.49634 0l-0.597686 0 -0.501614 -1.87156 0.597969 0 0.50133 1.87156zm-1.49634 0l-0.597969 0 -0.501614 -1.87156 0.597969 0 0.501614 1.87156zm-1.49662 0l-0.597686 0 -0.501614 -1.87156 0.597969 0 0.50133 1.87156zm-1.50286 -0.0238054c-0.358215,-0.0915374 -0.550075,-0.437566 -0.439266,-0.85076l0.105707 -0.39449 0.333559 1.24525zm7.69538 -2.55823l0.0121861 -0.0158703c0.0629143,-0.0841691 0.118744,-0.174006 0.165504,-0.268094 0.0476108,-0.0957884 0.0867197,-0.197528 0.115343,-0.304086l-0.000850193 -0.000283398 0.00141699 -0.00141699 0.0731166 -0.273195 0.779627 2.90993c-0.122428,0.177974 -0.293883,0.325907 -0.484893,0.420845l-0.66145 -2.46783zm0.816185 -2.53981l0.298985 -1.11545 0.813635 3.03689 -0.298985 1.11545 -0.813635 -3.03689zm0.74817 -2.79232l0.298985 -1.11574 0.813635 3.03689 -0.298985 1.11574 -0.813635 -3.03689zm0.845375 -2.43042l0.597686 0 0.501614 1.87156 -0.167488 0 -0.215382 0.803149 -0.716429 -2.67471z"/>
   </g>
  </g>
 </g>
</svg>
